<?xml version="1.0" encoding="utf-8"?>
<!-- Generator: Adobe Illustrator 27.1.0, SVG Export Plug-In . SVG Version: 6.00 Build 0)  -->
<svg version="1.1" id="Capa_1" xmlns="http://www.w3.org/2000/svg" xmlns:xlink="http://www.w3.org/1999/xlink" x="0px" y="0px"
	 viewBox="0 0 856 781" style="enable-background:new 0 0 856 781;" xml:space="preserve">
<style type="text/css">
	.st0{fill:#ECECEC;}
	.st1{fill:#E1E1E1;}
	.st2{fill:#F5F5F5;}
	.st3{fill:#FAFAFA;}
	.st4{fill:#FFBF9D;}
	.st5{fill:#FE9900;}
	.st6{fill:#1A2E35;}
	.st7{opacity:0.3;}
	.st8{fill:#1C3247;}
	.st9{fill:#FF9A6C;}
	.st10{fill:#FFFFFF;}
	.st11{fill:#375A64;}
</style>
<g>
	<g>
		<g id="Notificacion_1">
			<g id="Grupo_6492" transform="translate(-708.405 -101.787)">
				<g id="Grupo_6205" transform="translate(737.819 488.733)">
					<g id="Grupo_6187">
						<g id="Grupo_6173" transform="translate(81.502 107.973)">
							<g id="Grupo_6172">
								<path id="Trazado_2849" class="st0" d="M10,4.1c8.3-4.3,18-4.9,27.3-3.3c5,0.8,10.1,2.3,13.5,6s4,10.3,0.1,13.5
									c-2.3,1.9-5.5,2.2-8.5,2.2c-7.2-0.1-15.2-1.4-21,3c-3.3,2.5-5.5,6.6-9.4,7.8c-3.8,1.2-8.2-1.1-10.2-4.6S-0.3,20.9,0.6,17
									C1.5,11.4,5,6.7,10,4.1z"/>
							</g>
						</g>
						<g id="Grupo_6175" transform="translate(67.638)">
							<g id="Grupo_6174">
								<path id="Trazado_2850" class="st0" d="M4.8,75.3c5.1,7.3,15,4.9,19.5,0.4s6.5-10.8,8.3-17c4-14,8.1-28.6,5.1-42.9
									c-0.9-4.3-2.5-8.5-5.5-11.7s-7.6-5-11.8-3.9c-5,1.3-8.1,6.2-10.3,10.8C3.5,24.8,0.1,39.8,0,55C0,62.1,0.8,69.5,4.8,75.3"/>
							</g>
						</g>
						<g id="Grupo_6177" transform="translate(0 23.338)">
							<g id="Grupo_6176">
								<path id="Trazado_2851" class="st0" d="M58.5,62.4c5.5-6.5,6.6-16.1,4.1-24.3s-8-15.2-14.4-20.9C40.7,10.6,31.9,5.4,22.5,2
									c-3.7-1.3-7.7-2.3-11.6-2S3,2.5,1.1,6C-1.6,11.1,1,17.4,3.8,22.5c5,9,10.6,17.6,16.9,25.8c5.1,6.5,10.9,13,18.6,15.9
									c7.7,2.9,15.8,2.6,19.9-2.8"/>
							</g>
						</g>
						<g id="Grupo_6180" transform="translate(71.997 118.045)">
							<g id="Grupo_6179">
								<g id="Grupo_6178">
									<path id="Trazado_2852" class="st1" d="M0.1,66.7c0.3-1.1,0.4-2.2,0.5-3.3c0.2-2.4,0.5-5.4,0.9-9c0.4-4.4,1.1-8.8,2-13.2
										c1.2-5.3,2.8-10.5,4.8-15.6c2-5,4.6-9.8,8-14.1C19,8,22.4,5.1,26.4,3.1c2.7-1.3,5.5-2.2,8.5-2.6c1.1,0,2.2-0.2,3.3-0.5
										c-1.1-0.1-2.2-0.2-3.3-0.1c-3.1,0.2-6,1-8.8,2.3c-4.1,2-7.8,4.8-10.6,8.4C11.8,15.1,9,20,7,25.1S3.4,35.5,2.2,40.9
										c-0.9,4.4-1.4,8.9-1.8,13.4C0.1,58.1,0,61.2,0,63.4C-0.1,64.5,0,65.6,0.1,66.7z"/>
								</g>
							</g>
						</g>
						<g id="Grupo_6183" transform="translate(71.997 29.143)">
							<g id="Grupo_6182">
								<g id="Grupo_6181">
									<path id="Trazado_2853" class="st1" d="M0.7,148.7c0.1-0.5,0.1-1,0.1-1.5c0-1.1,0-2.6,0-4.4c0-3.8,0-9.3,0.2-16.1
										C1.3,113.1,2.5,98.5,4.7,78c2.1-19.4,5-41.9,8-56.5c0.6-3.3,1.3-6.3,1.9-9c0.6-2.6,1.1-4.9,1.6-6.7c0.4-1.7,0.8-3.1,1-4.2
										c0.1-0.5,0.2-1,0.3-1.5C17.3,0.6,17.1,1,17,1.5c-0.3,1.1-0.8,2.5-1.3,4.2c-0.6,1.8-1.1,4.1-1.8,6.7s-1.4,5.6-2.1,8.9
										C8.1,38.6,5.3,56.1,3.4,73.7c-2.3,20.6-3.3,39.4-3.4,53c-0.1,6.8,0.1,12.3,0.2,16.1c0.1,1.8,0.2,3.2,0.3,4.4
										C0.5,147.7,0.6,148.2,0.7,148.7z"/>
								</g>
							</g>
						</g>
						<g id="Grupo_6186" transform="translate(24.349 40.218)">
							<g id="Grupo_6185">
								<g id="Grupo_6184">
									<path id="Trazado_2854" class="st1" d="M48.5,101.4c0.1-1.5,0.1-3,0-4.6c-0.2-2.9-0.6-7.2-1.4-12.4c-1-6.1-2.3-12.1-4-18
										c-2-7.3-4.5-14.4-7.5-21.3c-6.3-14.8-14.8-27-22.1-34.5c-1.6-1.7-3.4-3.3-5.2-4.8c-1-0.7-1.7-1.4-2.4-1.9l-2-1.4
										C2.6,1.5,1.4,0.7,0,0c-0.2,0.3,5.5,3.6,12.6,11.2S28,30.8,34.2,45.6c3,6.9,5.5,13.9,7.6,21.1c1.7,5.9,3.2,11.8,4.3,17.9
										c0.9,5.1,1.5,9.3,1.8,12.3C48,98.4,48.1,99.9,48.5,101.4z"/>
								</g>
							</g>
						</g>
					</g>
					<g id="Grupo_6189" transform="translate(37.793 205.493)">
						<g id="Grupo_6188">
							<path id="Trazado_2855" class="st1" d="M0,0l3.6,49.7h63.9L71.1,0H0z"/>
						</g>
					</g>
					<g id="Grupo_6191" transform="translate(31.623 185.895)">
						<g id="Grupo_6190">
							<rect id="Rectángulo_183" x="0" y="0" class="st1" width="84.9" height="19.6"/>
						</g>
					</g>
					<g id="Grupo_6193" transform="translate(31.623 253.312)">
						<g id="Grupo_6192">
							<path id="Trazado_2856" class="st0" d="M0,0v5.4h83.5V0H0z"/>
						</g>
					</g>
					<g id="Grupo_6195" transform="translate(35.614 258.744)">
						<g id="Grupo_6194">
							<path id="Trazado_2857" class="st1" d="M3.9,9.6L0,0h76.5l-4.6,9.6H3.9z"/>
						</g>
					</g>
					<g id="Grupo_6198" transform="translate(38.87 214.758)">
						<g id="Grupo_6197">
							<g id="Grupo_6196">
								<path id="Trazado_2858" class="st2" d="M68.9,7c-0.1,0.2-0.2,0.3-0.3,0.5c-0.3,0.3-0.6,0.8-1,1.3l-3.7,4.8l-0.2,0.2
									l-0.2-0.2L54.4,0.8H55c-2.7,3.9-5.7,8.1-9,12.7L45.7,14l-0.3-0.4L34.7,0.9h0.6c-0.2,0.2-0.4,0.5-0.6,0.7
									c-3.3,4.2-6.5,8.2-9.5,12L24.8,14l-0.3-0.4c-3.2-4.6-6.3-8.9-9-12.7H16L5,13.5l-0.2,0.2l-0.2-0.3C3.2,11,2,9,1.2,7.6
									C0.8,7,0.5,6.5,0.3,6.1C0.2,5.9,0.1,5.7,0,5.5C0.1,5.7,0.3,5.8,0.4,6c0.3,0.4,0.6,0.9,1,1.5c0.9,1.4,2.1,3.3,3.6,5.7H4.7
									c2.8-3.3,6.5-7.7,10.9-12.8l0.3-0.3l0.2,0.3c2.8,3.9,5.8,8.1,9.1,12.7h-0.6l9.5-12c0.2-0.3,0.4-0.5,0.6-0.7L35,0l0.3,0.4
									c3.7,4.5,7.3,8.8,10.6,12.7h-0.6c3.3-4.6,6.3-8.9,9.1-12.7L54.7,0L55,0.4c3.6,5.1,6.7,9.5,8.9,12.8h-0.3
									c1.6-2,2.9-3.5,3.9-4.6l1-1.2C68.7,7.1,68.9,7,68.9,7z"/>
							</g>
						</g>
					</g>
					<g id="Grupo_6201" transform="translate(38.324 204.768)">
						<g id="Grupo_6200">
							<g id="Grupo_6199">
								<path id="Trazado_2859" class="st2" d="M71.5,0.4c0,0.2-16,0.4-35.7,0.4S0,0.6,0,0.4S16,0,35.7,0S71.5,0.2,71.5,0.4z"/>
							</g>
						</g>
					</g>
					<g id="Grupo_6204" transform="translate(35.346 258.882)">
						<g id="Grupo_6203">
							<g id="Grupo_6202">
								<path id="Trazado_2860" class="st2" d="M77.7,0.4c0,0.2-17.4,0.4-38.8,0.4S0,0.6,0,0.4S17.4,0,38.8,0S77.7,0.2,77.7,0.4z"/>
							</g>
						</g>
					</g>
				</g>
				<g id="Grupo_6290" transform="translate(785.228 286.037)">
					<g id="Grupo_6213" transform="translate(8.802 0.039)">
						<g id="Grupo_6212">
							<g id="Grupo_6211">
								<g id="Grupo_6210">
									<g id="Grupo_6209">
										<g id="Grupo_6208">
											<g id="Grupo_6207">
												<g id="Grupo_6206">
													<rect id="Rectángulo_184" x="0" y="0" class="st1" width="129.4" height="134.9"/>
												</g>
											</g>
										</g>
									</g>
								</g>
							</g>
						</g>
					</g>
					<g id="Grupo_6228">
						<g id="Grupo_6220" transform="translate(0.041 0.039)">
							<g id="Grupo_6219">
								<g id="Grupo_6218">
									<g id="Grupo_6217">
										<g id="Grupo_6216">
											<g id="Grupo_6215">
												<g id="Grupo_6214">
													<rect id="Rectángulo_185" x="0" y="0" class="st3" width="129.4" height="134.9"/>
												</g>
											</g>
										</g>
									</g>
								</g>
							</g>
						</g>
						<g id="Grupo_6227">
							<g id="Grupo_6226">
								<g id="Grupo_6225">
									<g id="Grupo_6224">
										<g id="Grupo_6223">
											<g id="Grupo_6222">
												<g id="Grupo_6221">
													<path id="Trazado_2861" class="st1" d="M129.5,134.9H0V0h129.5V134.9z M0.1,134.9h129.3V0.1H0.1V134.9z"/>
												</g>
											</g>
										</g>
									</g>
								</g>
							</g>
						</g>
					</g>
					<g id="Grupo_6236" transform="translate(17.432 18.168)">
						<g id="Grupo_6235">
							<g id="Grupo_6234">
								<g id="Grupo_6233">
									<g id="Grupo_6232">
										<g id="Grupo_6231">
											<g id="Grupo_6230">
												<g id="Grupo_6229">
													<rect id="Rectángulo_186" x="0" y="0" class="st3" width="94.6" height="98.6"/>
												</g>
											</g>
										</g>
									</g>
								</g>
							</g>
						</g>
					</g>
					<g id="Grupo_6245" transform="translate(0.167 117.418)">
						<g id="Grupo_6244">
							<g id="Grupo_6243">
								<g id="Grupo_6242">
									<g id="Grupo_6241">
										<g id="Grupo_6240">
											<g id="Grupo_6239">
												<g id="Grupo_6238">
													<g id="Grupo_6237">
														<path id="Trazado_2862" class="st1" d="M17.3,0c-0.7,1-1.5,1.9-2.3,2.7c-1.5,1.6-3.6,3.8-6,6.1s-4.6,4.4-6.2,5.9
															C1.9,15.6,1,16.4,0,17c0.7-1,1.4-1.9,2.3-2.7c1.5-1.6,3.6-3.8,6-6.1s4.6-4.4,6.2-5.9C15.4,1.4,16.3,0.7,17.3,0z"/>
													</g>
												</g>
											</g>
										</g>
									</g>
								</g>
							</g>
						</g>
					</g>
					<g id="Grupo_6254" transform="translate(112.015 117.177)">
						<g id="Grupo_6253">
							<g id="Grupo_6252">
								<g id="Grupo_6251">
									<g id="Grupo_6250">
										<g id="Grupo_6249">
											<g id="Grupo_6248">
												<g id="Grupo_6247">
													<g id="Grupo_6246">
														<path id="Trazado_2863" class="st1" d="M0,0c1,0.7,1.9,1.5,2.7,2.3c1.6,1.5,3.8,3.6,6.1,6s4.4,4.6,5.9,6.2
															c0.9,0.8,1.6,1.7,2.3,2.7c-1-0.7-1.9-1.4-2.7-2.3c-1.6-1.5-3.8-3.6-6.1-6S3.8,4.3,2.3,2.7C1.4,1.9,0.7,1,0,0z"/>
													</g>
												</g>
											</g>
										</g>
									</g>
								</g>
							</g>
						</g>
					</g>
					<g id="Grupo_6263" transform="translate(111.757 1.425)">
						<g id="Grupo_6262">
							<g id="Grupo_6261">
								<g id="Grupo_6260">
									<g id="Grupo_6259">
										<g id="Grupo_6258">
											<g id="Grupo_6257">
												<g id="Grupo_6256">
													<g id="Grupo_6255">
														<path id="Trazado_2864" class="st1" d="M0,17c0.7-1,1.5-1.9,2.3-2.7c1.5-1.6,3.6-3.8,6-6.1s4.6-4.4,6.2-5.9
															c0.8-0.9,1.7-1.6,2.7-2.3c-0.7,1-1.4,1.9-2.3,2.7c-1.5,1.6-3.6,3.8-6,6.1s-4.6,4.4-6.2,5.9C1.9,15.6,1,16.4,0,17z"/>
													</g>
												</g>
											</g>
										</g>
									</g>
								</g>
							</g>
						</g>
					</g>
					<g id="Grupo_6272" transform="translate(0.167 1.408)">
						<g id="Grupo_6271">
							<g id="Grupo_6270">
								<g id="Grupo_6269">
									<g id="Grupo_6268">
										<g id="Grupo_6267">
											<g id="Grupo_6266">
												<g id="Grupo_6265">
													<g id="Grupo_6264">
														<path id="Trazado_2865" class="st1" d="M17,17.3c-1-0.7-1.9-1.5-2.7-2.3c-1.6-1.5-3.8-3.6-6.1-6S3.8,4.4,2.3,2.7
															C1.4,1.9,0.6,1,0,0c1,0.7,1.9,1.4,2.7,2.3c1.6,1.5,3.8,3.6,6.1,6s4.4,4.6,5.9,6.2C15.6,15.4,16.4,16.3,17,17.3z"/>
													</g>
												</g>
											</g>
										</g>
									</g>
								</g>
							</g>
						</g>
					</g>
					<g id="Grupo_6281" transform="translate(17.014 17.75)">
						<g id="Grupo_6280">
							<g id="Grupo_6279">
								<g id="Grupo_6278">
									<g id="Grupo_6277">
										<g id="Grupo_6276">
											<g id="Grupo_6275">
												<g id="Grupo_6274">
													<g id="Grupo_6273">
														<path id="Trazado_2866" class="st1" d="M94.7,99c0,0,0-0.2,0-0.5s0-0.8,0-1.4c0-1.2,0-3,0-5.3
															c0-4.7-0.1-11.5-0.1-20.1c0-17.3-0.1-41.9-0.2-71.3l0.4,0.4l-94.4,0l0,0l0.4-0.4c0,36.2,0,70-0.1,98.6l-0.4-0.4
															l68.3,0.2l19.2,0.1h5.1h1.3C94.6,99,94.7,99,94.7,99c-0.1,0-0.3,0-0.4,0H93h-5l-19,0.2c-16.6,0-40.2,0.1-68.5,0.2H0.1
															V99C0,70.5,0,36.6,0,0.4V0h0.4l94.3,0.1h0.4v0.4C95,30,95,54.7,94.9,72c0,8.6-0.1,15.4-0.1,20c0,2.3,0,4,0,5.3
															c0,0.6,0,1,0,1.3C94.8,98.7,94.8,98.9,94.7,99z"/>
													</g>
												</g>
											</g>
										</g>
									</g>
								</g>
							</g>
						</g>
					</g>
					<g id="Grupo_6289" transform="translate(48.945 51.687)">
						<g id="Grupo_6288">
							<g id="Grupo_6287">
								<g id="Grupo_6286">
									<g id="Grupo_6285">
										<g id="Grupo_6284">
											<g id="Grupo_6283">
												<g id="Grupo_6282">
													<rect id="Rectángulo_187" x="0" y="0" class="st0" width="31.6" height="31.6"/>
												</g>
											</g>
										</g>
									</g>
								</g>
							</g>
						</g>
					</g>
				</g>
				<g id="Grupo_6300" transform="translate(894.688 414.558)">
					<path id="Trazado_2867" class="st4" d="M137.6,7.8L178,0l77.6,17.8l39.3,8.2l0.6,53.7l-87.7,16.1l-59.2-17.5l-22.4-32.9
						L137.6,7.8z"/>
					<path id="Trazado_2868" class="st5" d="M106,15l38.2-9c0,0,27,83.4,93.5,79.8c54.3-2.9,54.3-58,54.3-58l39.7,7
						c0,0,16.6,100.7-1.6,171.4c-15.2,58.8-28.6,139.4-28.6,139.4H37.9L106,15L106,15z"/>
					<path id="Trazado_2869" class="st5" d="M492.6,273c0,0-108.7-190.4-128.2-214.9c-21.4-26.8-38.5-23.7-38.5-23.7l-11.5,128.3
						l92.4,131.1l22,7.9L492.6,273z"/>
					<path id="Trazado_2870" class="st5" d="M110.6,13.9c0,0-61.8,4.9-83.9,106.2C16.7,165.9,4,219.5,0.4,255.6
						C-2.2,281.8,13.9,309,40,312.3l32.7,6.1c18,3.3,35.4-8,39.7-25.7l11.1-45.8L93.9,237l6.8-136.4L110.6,13.9z"/>
					<g id="Grupo_6291" transform="translate(321.028 100.021)">
						<path id="Trazado_2871" class="st6" d="M15.7,0C15.9,0.5,16,0.9,16,1.4c0.2,1,0.4,2.4,0.6,4.1c0.1,0.9,0.3,1.9,0.4,3
							s0.2,2.3,0.4,3.5c0.3,2.5,0.6,5.4,0.7,8.6c0.4,7.5,0.5,15,0.2,22.5c-0.4,9.2-1.4,18.3-2.7,27.4c-1.4,9.7-3.2,18.8-5,27.1
							S7,113.3,5.5,119.5c-1.6,6.2-2.9,11.2-3.8,14.7c-0.5,1.6-0.8,3-1.1,4c-0.1,0.5-0.3,0.9-0.5,1.4c0-0.5,0.1-1,0.3-1.4
							c0.2-1,0.5-2.3,0.9-4c0.9-3.6,2-8.6,3.5-14.7c1.5-6.2,3.2-13.6,4.9-21.9c1.8-8.3,3.5-17.4,4.9-27.1s2.4-18.9,2.8-27.3
							s0.4-16.1,0.1-22.4c-0.1-3.2-0.3-6.1-0.5-8.6c-0.1-1.3-0.2-2.4-0.3-3.5c-0.1-1.1-0.2-2.1-0.3-3C16.2,4,16.1,2.6,16,1.6
							C15.7,1,15.7,0.5,15.7,0z"/>
					</g>
					<g id="Grupo_6292" transform="translate(88.774 106.518)">
						<path id="Trazado_2872" class="st6" d="M37.5,139.7c-0.1-0.3-0.2-0.5-0.3-0.8c-0.2-0.6-0.5-1.4-0.8-2.4
							c-0.3-1.1-0.7-2.4-1.2-3.9s-0.8-3.5-2.2-4.9c-1.6-1.6-3.6-2.7-5.7-3.5c-2.5-0.9-5.1-1.7-7.7-2.2c-6.3-1.2-12.6-1.8-19-2H0.1
							l0.1-0.5c1.5-11,3.4-23.4,5.4-36.5c3.6-22.9,6.9-43.6,9.2-58.8l2.9-17.8c0.4-2,0.6-3.6,0.8-4.8c0.1-0.5,0.2-0.9,0.2-1.3
							c0-0.1,0.1-0.3,0.1-0.4c0,0.1,0,0.3,0,0.4c0,0.3-0.1,0.8-0.1,1.3c-0.2,1.2-0.4,2.8-0.7,4.9c-0.6,4.3-1.5,10.4-2.6,17.8
							c-2.3,15.1-5.5,35.9-8.9,58.8c-2,13.1-4,25.5-5.7,36.3L0.5,119c6.4,0.2,12.9,0.9,19.2,2.1c2.7,0.5,5.3,1.3,7.8,2.3
							c2.2,0.8,4.2,2.1,5.9,3.7c0.7,0.8,1.2,1.7,1.5,2.6l0.7,2.5c0.4,1.5,0.8,2.9,1.1,4c0.3,1,0.5,1.8,0.7,2.5
							C37.4,139.1,37.4,139.4,37.5,139.7z"/>
					</g>
					<g id="Grupo_6293" transform="translate(41.145 225.781)">
						<path id="Trazado_2873" class="st6" d="M0,35.9c0.1-0.9,0.2-1.7,0.5-2.5c0.6-2.3,1.4-4.5,2.4-6.7C9.5,12.1,23.3,2.1,39.1,0.3
							c2.3-0.3,4.7-0.4,7.1-0.2c0.9,0,1.7,0.1,2.6,0.3c0,0.2-3.7-0.2-9.5,0.6c-15.6,2.1-29,11.9-35.8,26C0.9,32.3,0.2,35.9,0,35.9z"
							/>
					</g>
					<g id="Grupo_6294" transform="translate(55.437 211.095)">
						<path id="Trazado_2874" class="st6" d="M0,0.2C0.5,0,1,0,1.5,0c1.4,0,2.7,0,4.1,0.2c9,0.9,17.6,4.4,24.6,10.1
							c1.1,0.8,2.1,1.8,3,2.7c0.7,0.7,1,1.1,1,1.1c-0.1,0.1-1.7-1.3-4.4-3.3c-7.2-5.3-15.5-8.7-24.3-10C2.1,0.4,0,0.3,0,0.2z"/>
					</g>
					<g id="Grupo_6295" transform="translate(101.07 14.974)">
						<path id="Trazado_2875" class="st6" d="M18.3,65.2c-0.1-0.9-0.2-1.8-0.2-2.7c0-1.7-0.1-4.3-0.3-7.3c-1.1-16.2-5.5-32-13-46.3
							c-1.4-2.8-2.7-5-3.5-6.4C0.8,1.6,0.4,0.8,0,0c0.6,0.7,1.1,1.4,1.6,2.2c1,1.4,2.3,3.6,3.8,6.3c7.9,14.3,12.4,30.3,13.1,46.6
							c0.1,3.1,0.1,5.6,0,7.4C18.6,63.4,18.5,64.3,18.3,65.2z"/>
					</g>
					<g id="Grupo_6296" transform="translate(333.449 95.845)" class="st7">
						<path id="Trazado_2876" d="M0.5,89.2C16.2,62.5,16.6,27.8,2.8,0C6.9,29.6,6.6,59.9,0,89"/>
					</g>
					<g id="Grupo_6297" transform="translate(153.567 193.262)" class="st7">
						<path id="Trazado_2877" d="M40.2,21.9c-12,3.5-28.5,4.4-40.2-0.1c9.1,12.9,26.7,17.6,42,13.4S71.3,15.8,72.5,0
							C65.1,10,52.1,18.4,40.2,21.9z"/>
					</g>
					<g id="Grupo_6298" transform="translate(150.356 172.08)">
						<path id="Trazado_2878" class="st6" d="M87.3,0c0,0.4-0.1,0.7-0.3,1.1c-0.2,0.7-0.5,1.7-1,3c-1.4,3.6-3.1,7.1-5.1,10.4
							C67.2,37,41.5,49.3,15.3,46c-3.9-0.5-7.6-1.3-11.3-2.5c-1.3-0.4-2.3-0.8-3-1.1c-0.4-0.1-0.7-0.3-1-0.5c0-0.1,1.5,0.4,4.1,1.1
							c3.7,1,7.5,1.8,11.3,2.2c25.8,3,51.1-9.1,64.9-31.2c2.1-3.2,3.9-6.6,5.4-10.2C86.7,1.4,87.3,0,87.3,0z"/>
					</g>
					<g id="Grupo_6299" transform="translate(37.92 304.897)">
						<path id="Trazado_2879" class="st6" d="M66.5,0c0,0-0.1,0.2-0.5,0.5c-0.5,0.5-1,0.9-1.5,1.3c-2,1.5-4.2,2.6-6.5,3.5
							c-3.5,1.2-7.1,1.8-10.8,1.9c-4.5,0.1-8.9,0-13.4-0.5c-9.4-0.8-17.9-2.2-24-3.3C6.7,2.9,4.3,2.4,2.6,2C1.7,2,0.9,1.8,0,1.5
							c0.9,0,1.8,0.1,2.7,0.3L10,2.9c6.1,0.9,14.6,2.2,24,3c4.4,0.5,8.8,0.6,13.2,0.5c3.6-0.1,7.2-0.6,10.6-1.7
							C63.6,2.7,66.4-0.2,66.5,0z"/>
					</g>
				</g>
				<g id="Grupo_6301" transform="translate(1134.922 216.858)">
					<path id="Trazado_2880" class="st8" d="M78.5,7.6L86.3,0c10.4,4.5,15.2,16.6,16.9,27.8s1.5,23,6.3,33.2
						c3.7,7.9,10.3,15.2,9.5,23.9c-0.8,8.3-8.2,14.9-8.3,23.2c0,8,6.6,14.1,10.5,21.1c7.8,14.1,12.9,72,8.8,87.6
						c-34.5-3-95.5-6.7-130-14.6C9.1,142.9,47.4,59,78.5,7.6z"/>
				</g>
				<g id="Grupo_6317" transform="translate(1065.432 190.492)">
					<g id="Grupo_6316">
						<g id="Grupo_6315">
							<g id="Grupo_6314">
								<g id="Grupo_6313">
									<g id="Grupo_6312">
										<g id="Grupo_6311">
											<g id="Grupo_6310">
												<g id="Grupo_6309">
													<g id="Grupo_6308">
														<g id="Grupo_6307">
															<g id="Grupo_6306">
																<g id="Grupo_6304">
																	<g id="Grupo_6303">
																		<path id="Trazado_2882" class="st4" d="M163.4,82.8c2.4-40.4-26.9-77.4-67.8-82.2C52.2-4.6,13.8,26.5,10.2,68.7
																			L0,239.4c-0.2,3.3,0.7,6.6,2.6,9.3c10,14.6,28.2,26.1,44.4,28.3c15.7,2.2,31.6-1.9,45-9.3
																			c4.5-2.6,7.3-7.3,7.4-12.5l0.7-38.2c0-0.1,0.1-0.2,0.2-0.3l0,0c2.4,0.2,8.4,0.3,10.7-0.3
																			c10.1-2.5,35.9-12.4,44.5-50.1C158.4,153.8,161.3,118.2,163.4,82.8z"/>
																	</g>
																</g>
																<g id="Grupo_6305" transform="translate(107.277 83.202)">
																	<path id="Trazado_2883" class="st6" d="M0,55.4c0-0.4,4.2-0.8,11.1-1.2c1.7-0.1,3.4-0.3,3.7-1.4
																		c0.5-1.2-0.1-3.1-0.8-5.1c-1.4-4.2-2.8-8.6-4.3-13.2C3.8,15.6-0.3,0.2,0.5,0s6.2,14.9,12,33.7
																		c1.4,4.6,2.8,9.1,4,13.3c0.5,2,1.5,4.2,0.5,6.7c-0.6,1.2-1.7,2-3,2.3c-1,0.2-2,0.3-2.9,0.2C4.2,56,0,55.7,0,55.4z"
																		/>
																</g>
															</g>
														</g>
													</g>
												</g>
											</g>
										</g>
									</g>
								</g>
							</g>
						</g>
					</g>
				</g>
				<g id="Grupo_6330" transform="translate(1194.076 280.381)">
					<g id="Grupo_6329">
						<g id="Grupo_6328">
							<g id="Grupo_6327">
								<g id="Grupo_6326">
									<g id="Grupo_6325">
										<g id="Grupo_6324">
											<g id="Grupo_6323">
												<g id="Grupo_6322">
													<g id="Grupo_6321">
														<g id="Grupo_6320">
															<g id="Grupo_6319">
																<g id="Grupo_6318">
																	<path id="Trazado_2884" class="st6" d="M23.6,7.2C22.8,8,18.4,4.2,12,4C5.5,3.8,0.8,7.2,0.1,6.3
																		c-0.3-0.4,0.4-1.9,2.5-3.4c2.8-2,6.1-3,9.5-2.9s6.7,1.4,9.3,3.5C23.3,5.3,24,6.8,23.6,7.2z"/>
																</g>
															</g>
														</g>
													</g>
												</g>
											</g>
										</g>
									</g>
								</g>
							</g>
						</g>
					</g>
				</g>
				<g id="Grupo_6343" transform="translate(1126.768 280.88)">
					<g id="Grupo_6342">
						<g id="Grupo_6341">
							<g id="Grupo_6340">
								<g id="Grupo_6339">
									<g id="Grupo_6338">
										<g id="Grupo_6337">
											<g id="Grupo_6336">
												<g id="Grupo_6335">
													<g id="Grupo_6334">
														<g id="Grupo_6333">
															<g id="Grupo_6332">
																<g id="Grupo_6331">
																	<path id="Trazado_2885" class="st6" d="M25.7,8.3c-0.9,0.8-5.5-3.4-12.5-4C6.2,3.6,0.8,6.9,0.1,5.9
																		c-0.3-0.4,0.6-2,3-3.5C6.3,0.5,10-0.4,13.7,0c3.7,0.3,7.2,1.8,9.9,4.3C25.6,6.3,26.2,7.9,25.7,8.3z"/>
																</g>
															</g>
														</g>
													</g>
												</g>
											</g>
										</g>
									</g>
								</g>
							</g>
						</g>
					</g>
				</g>
				<g id="Grupo_6355" transform="translate(1108.077 386.026)">
					<g id="Grupo_6354">
						<g id="Grupo_6353">
							<g id="Grupo_6352">
								<g id="Grupo_6351">
									<g id="Grupo_6350">
										<g id="Grupo_6349">
											<g id="Grupo_6348">
												<g id="Grupo_6347">
													<g id="Grupo_6346">
														<g id="Grupo_6345">
															<g id="Grupo_6344">
																<path id="Trazado_2886" class="st9" d="M57.4,21.2c0,0-26.1,0.3-57.4-21.2c0,0,8.1,34.5,57.2,33.4L57.4,21.2z"/>
															</g>
														</g>
													</g>
												</g>
											</g>
										</g>
									</g>
								</g>
							</g>
						</g>
					</g>
				</g>
				<g id="Grupo_6367" transform="translate(1148.468 339.62)">
					<g id="Grupo_6366">
						<g id="Grupo_6365">
							<g id="Grupo_6364">
								<g id="Grupo_6363">
									<g id="Grupo_6362">
										<g id="Grupo_6361">
											<g id="Grupo_6360">
												<g id="Grupo_6359">
													<g id="Grupo_6358">
														<g id="Grupo_6357">
															<g id="Grupo_6356">
																<path id="Trazado_2887" class="st10" d="M20.4,5.2C17.9,1.8,14-0.2,9.8,0c-3,0-5.9,1.3-7.9,3.5
																	C0,5.7-0.6,9,0.9,11.4c1.7,2.6,5.4,3.5,8.7,2.8s6.2-2.6,8.9-4.5c0.8-0.5,1.5-1.1,2-1.8c0.6-0.7,0.6-1.7,0.2-2.5"/>
															</g>
														</g>
													</g>
												</g>
											</g>
										</g>
									</g>
								</g>
							</g>
						</g>
					</g>
				</g>
				<g id="Grupo_6390" transform="translate(1122.641 256.718)">
					<g id="Grupo_6389">
						<g id="Grupo_6388">
							<g id="Grupo_6387">
								<g id="Grupo_6386">
									<g id="Grupo_6385">
										<g id="Grupo_6384">
											<g id="Grupo_6383">
												<g id="Grupo_6382">
													<g id="Grupo_6381">
														<path id="Trazado_2889" class="st6" d="M30.9,6c-0.8,1.7-7.5,0.4-15.4,0.7C7.5,6.9,1,8.7,0.1,7
															c-0.4-0.8,0.8-2.4,3.5-4c3.6-1.9,7.6-3,11.6-3.1c4.1-0.2,8.1,0.6,11.9,2.3C29.9,3.7,31.3,5.2,30.9,6z"/>
													</g>
												</g>
											</g>
										</g>
									</g>
								</g>
							</g>
						</g>
					</g>
				</g>
				<g id="Grupo_6400" transform="translate(1192.38 257.353)">
					<g id="Grupo_6399">
						<g id="Grupo_6398">
							<g id="Grupo_6397">
								<g id="Grupo_6396">
									<g id="Grupo_6395">
										<g id="Grupo_6394">
											<g id="Grupo_6393">
												<g id="Grupo_6392">
													<g id="Grupo_6391">
														<path id="Trazado_2890" class="st6" d="M26.7,6.8c-1.4,1.5-6.8,0-13.3-0.1C6.9,6.5,1.4,7.8,0.2,6.2
															C-0.4,5.5,0.5,4,2.8,2.5C9.6-1,17.6-0.8,24.2,3C26.5,4.5,27.3,6.1,26.7,6.8z"/>
													</g>
												</g>
											</g>
										</g>
									</g>
								</g>
							</g>
						</g>
					</g>
				</g>
				<g id="Grupo_6405" transform="translate(1055.9 171.975)">
					<g id="Grupo_6401">
						<path id="Trazado_2891" class="st8" d="M111.1,10.5c-3.5-6-10.1-8.7-17.4-9.8c-29.9-4.5-63.3,13.5-80,38.6S-3.9,102,8.3,129.7
							L27,118c37.4-15.4,63.9-51.5,87.9-88.8C118.2,24.2,114.2,15.7,111.1,10.5z"/>
					</g>
					<g id="Grupo_6402" transform="translate(108.523 5.169)">
						<path id="Trazado_2892" class="st8" d="M48.6,21.8C36.1,7.6,27-6.6,1,3.3C-2.8,10.6,4.9,20,11.3,25.5
							C20.7,33.6,29,39,35.1,44.8C47.6,56.5,61.8,95.7,63,117.2c0.1,1.3,2.4-18.4,3.7-18.6c1.7-0.3,8.8-8.9,7.8-20.6
							C71.3,37.7,61.1,36,48.6,21.8z"/>
					</g>
					<g id="Grupo_6404" transform="translate(93.689 0.515)">
						<g id="Grupo_6403">
							<path id="Trazado_2893" class="st8" d="M0,0.2C0,0,2.3-0.3,5.8,0.7c4.6,1.4,8.7,4.1,11.8,7.7c0.9,1,1.7,2.2,2.4,3.4
								c0.6,1.1,1,2.3,1.4,3.6c0.7,2,1.2,4.1,1.5,6.1c0.5,3.7-0.4,5.9-0.5,5.8c-0.3,0,0.1-2.2-0.7-5.6c-0.5-2-1.1-3.9-1.9-5.9
								c-0.3-1.1-0.8-2.2-1.3-3.2c-0.6-1.1-1.4-2.1-2.2-3.1c-3-3.3-6.7-5.9-10.9-7.6C2.2,0.7,0,0.5,0,0.2z"/>
						</g>
					</g>
				</g>
				<g id="Grupo_6411" transform="translate(1200.425 294.859)">
					<g id="Grupo_6410">
						<g id="Grupo_6409">
							<g id="Grupo_6408">
								<g id="Grupo_6407">
									<g id="Grupo_6406">
										<path id="Trazado_2894" class="st6" d="M11.3,5C11.4,8.1,9,10.7,6,10.9C3,11.2,0.3,9,0,6V5.9C-0.1,2.8,2.3,0.2,5.4,0
											C8.4-0.3,11,1.9,11.3,5L11.3,5z"/>
									</g>
								</g>
							</g>
						</g>
					</g>
				</g>
				<g id="Grupo_6417" transform="translate(1137.937 295.251)">
					<g id="Grupo_6416">
						<g id="Grupo_6415">
							<g id="Grupo_6414">
								<g id="Grupo_6413">
									<g id="Grupo_6412">
										<path id="Trazado_2895" class="st6" d="M11.3,5C11.4,8.1,9,10.7,6,10.9C3,11.2,0.3,9,0,6V5.9C-0.1,2.8,2.3,0.2,5.4,0
											C8.4-0.3,11,1.9,11.3,5L11.3,5z"/>
									</g>
								</g>
							</g>
						</g>
					</g>
				</g>
				<g id="Grupo_6418" transform="translate(965.467 181.855)">
					<path id="Trazado_2896" class="st8" d="M11.8,170.1c3.5-5.8,7.5-11.3,14-13.7s13.8-3.8,18.8-8.5c7.9-7.3,7.7-19.4,6.9-30
						S50.7,95.1,58.8,88c6.8-5.9,17.6-6.5,23.5-13.3c3.9-4.5,4.7-10.8,6.1-16.6c3.7-15.5,12.3-42.6,58-58.2L106,153.5
						c3,0.8,10.2,7.7,10.6,12.4c0.4,4.3-1.5,8.8-1.6,13.1c-0.1,5.3,5.8,8.5,9.5,12.5c4.7,5,6.1,12.3,5.4,19s-4.7,20.5-7.3,26.8
						c-37.5-3.8-92.2-5-120.8-28.9C-3.5,204,4,183,11.8,170.1z"/>
				</g>
				<g id="Grupo_6454" transform="translate(1052.717 287.653)">
					<g id="Grupo_6435">
						<g id="Grupo_6434">
							<g id="Grupo_6433">
								<g id="Grupo_6432">
									<g id="Grupo_6431">
										<g id="Grupo_6430">
											<g id="Grupo_6429">
												<g id="Grupo_6428">
													<g id="Grupo_6427">
														<g id="Grupo_6426">
															<g id="Grupo_6425">
																<g id="Grupo_6424">
																	<g id="Grupo_6423">
																		<g id="Grupo_6422">
																			<g id="Grupo_6421">
																				<g id="Grupo_6420">
																					<g id="Grupo_6419">
																						<path id="Trazado_2897" class="st4" d="M30.1,2.3C29.4,1.9,1.8-9,0.1,20.1s27.8,24.8,27.9,24
																							S30.1,2.3,30.1,2.3z"/>
																					</g>
																				</g>
																			</g>
																		</g>
																	</g>
																</g>
															</g>
														</g>
													</g>
												</g>
											</g>
										</g>
									</g>
								</g>
							</g>
						</g>
					</g>
					<g id="Grupo_6453" transform="translate(7.393 9.193)">
						<g id="Grupo_6452">
							<g id="Grupo_6451">
								<g id="Grupo_6450">
									<g id="Grupo_6449">
										<g id="Grupo_6448">
											<g id="Grupo_6447">
												<g id="Grupo_6446">
													<g id="Grupo_6445">
														<g id="Grupo_6444">
															<g id="Grupo_6443">
																<g id="Grupo_6442">
																	<g id="Grupo_6441">
																		<g id="Grupo_6440">
																			<g id="Grupo_6439">
																				<g id="Grupo_6438">
																					<g id="Grupo_6437">
																						<g id="Grupo_6436">
																							<path id="Trazado_2898" class="st9" d="M12.3,23.3c-0.1-0.1-0.5,0.3-1.4,0.7c-1.2,0.4-2.6,0.4-3.8-0.2
																								c-3-1.3-5.3-6.3-5.1-11.6C2.1,9.7,2.7,7.3,3.9,5c1-2.1,2.5-3.5,4-3.7c1.2-0.2,2.4,0.4,2.9,1.6
																								c0.3,0.8,0.1,1.4,0.3,1.5c0.1,0.1,0.7-0.4,0.5-1.7c-0.1-0.7-0.5-1.4-1-1.9C9.8,0.3,8.8-0.1,7.8,0
																								C5.6,0,3.4,2,2.2,4.2C0.8,6.6,0,9.4,0,12.2c-0.2,5.9,2.5,11.5,6.6,13c1.6,0.6,3.3,0.4,4.7-0.5
																								C12.2,24,12.4,23.4,12.3,23.3z"/>
																						</g>
																					</g>
																				</g>
																			</g>
																		</g>
																	</g>
																</g>
															</g>
														</g>
													</g>
												</g>
											</g>
										</g>
									</g>
								</g>
							</g>
						</g>
					</g>
				</g>
				<g id="Grupo_6463" transform="translate(1076.179 269.967)">
					<g id="Grupo_6456" transform="translate(109.941)">
						<g id="Grupo_6455">
							<path id="Trazado_2899" class="st11" d="M0,27.6c0.2-2.2,0.5-4.4,0.9-6.5c1.4-5.8,4.8-11,9.5-14.7c7.2-5.5,16.6-7,25-4.1
								c4.9,1.7,9.2,4.8,12.4,9c7,9.1,7.2,21.7,0.5,31.1c-3,4.2-7.2,7.5-12.1,9.4C22.5,57,7.1,50.1,1.9,36.4
								c-0.3-0.8-0.5-1.5-0.8-2.3C0.6,32,0.3,29.8,0,27.6c0,0.1,0,0.3,0,0.4c0,0.3,0,0.8,0,1.3c0,0.7,0.1,1.4,0.2,2.1
								c0.1,0.9,0.3,1.9,0.5,2.8c2.7,10.2,11,18,21.4,19.8c4.8,0.8,9.7,0.4,14.3-1.4c5-1.9,9.4-5.3,12.5-9.7
								c6.9-9.7,6.7-22.8-0.5-32.3c-3.3-4.3-7.7-7.5-12.8-9.3C31-0.3,26-0.6,21.3,0.4C11.1,2.7,2.9,10.7,0.6,21
								c-0.2,0.9-0.4,1.9-0.5,2.8C0,24.5,0,25.2,0,25.9c0,0.5,0,0.9,0,1.3C0,27.3,0,27.5,0,27.6z"/>
						</g>
					</g>
					<g id="Grupo_6458" transform="translate(36.622 1.173)">
						<g id="Grupo_6457">
							<path id="Trazado_2900" class="st11" d="M0,27.6c0.2-2.2,0.5-4.4,0.9-6.5c1.4-5.8,4.8-11,9.5-14.7c7.2-5.5,16.6-7,25-4.1
								c4.9,1.7,9.2,4.8,12.4,9c7,9.1,7.2,21.7,0.5,31.1c-3,4.3-7.2,7.5-12.1,9.4C22.5,57,7.1,50.1,1.9,36.4
								c-0.3-0.8-0.5-1.5-0.8-2.3C0.6,32,0.3,29.8,0,27.6c0,0.1,0,0.3,0,0.4c0,0.3,0,0.8,0,1.3c0,0.7,0.1,1.4,0.2,2.1
								c0.1,0.9,0.3,1.9,0.5,2.8c2.7,10.2,11,18,21.4,19.8c4.8,0.8,9.7,0.4,14.3-1.4c5-1.9,9.4-5.3,12.5-9.7
								c6.9-9.7,6.7-22.8-0.5-32.3c-3.3-4.3-7.7-7.5-12.8-9.3C31-0.3,26-0.6,21.3,0.4C11,2.7,2.9,10.7,0.6,21
								c-0.2,0.9-0.4,1.9-0.5,2.8C0,24.5,0,25.2,0,25.9c0,0.5,0,0.9,0,1.3C0,27.3,0,27.5,0,27.6z"/>
						</g>
					</g>
					<g id="Grupo_6460" transform="translate(89.022 20.278)">
						<g id="Grupo_6459">
							<path id="Trazado_2901" class="st11" d="M0,6.5C0.2,6.6,0.9,5.4,2.7,4c4.7-3.9,11.4-4,16.2-0.3c1.8,1.4,2.6,2.6,2.8,2.5
								c0.1,0-0.5-1.4-2.3-3C14.4-1.2,7-1,2.2,3.4C0.5,5.1-0.1,6.5,0,6.5z"/>
						</g>
					</g>
					<g id="Grupo_6462" transform="translate(0 18.107)">
						<g id="Grupo_6461">
							<path id="Trazado_2902" class="st11" d="M0,0c0,0.1,2,0.6,5.4,1.1s8,1,13.1,1.5l13.1,1.2C35,4.1,37,4.4,37.1,4.2
								c0-0.1-2-0.6-5.4-1.1s-8-1-13.1-1.5c-5-0.4-9.5-0.8-13.1-1.2C2.1,0.1,0-0.1,0,0z"/>
						</g>
					</g>
				</g>
				<g id="Grupo_6464" transform="translate(1228.492 294.161)">
					<path id="Trazado_2903" class="st10" d="M0,19.8c-0.2-0.2,3.6-3.5,5.7-9.2C7.8,5,7,0,7.3,0C7.8,1,8,2.1,7.9,3.2
						C8,8.6,6.1,13.8,2.5,17.7C1.9,18.6,1,19.3,0,19.8z"/>
				</g>
				<g id="Grupo_6465" transform="translate(1233.063 283.971)">
					<path id="Trazado_2904" class="st10" d="M0,0c0.1-0.2,1.2,0.3,1.8,1.6S2.3,4.1,2,4.1s-0.5-1-1-2C0.5,1-0.1,0.3,0,0z"/>
				</g>
				<g id="Grupo_6466" transform="translate(1156.683 282.256)">
					<path id="Trazado_2905" class="st10" d="M4.9,26c-0.2-0.1,0.4-1.5,0.8-4C6.8,15.6,5.5,9,2.2,3.4C0.9,1.3-0.1,0.1,0,0
						c1.1,0.8,2.1,1.9,2.8,3c3.8,5.6,5.1,12.5,3.6,19.1C6.1,23.5,5.6,24.8,4.9,26z"/>
				</g>
				<g id="Grupo_6467" transform="translate(1057.705 329.256)">
					<path id="Trazado_2906" class="st1" d="M2.9,2C3,2.1,2.5,2.6,2,3.7C1.2,5.1,0.7,6.8,0.7,8.5c-0.1,2.5,0.9,4.9,2.7,6.6
						c3.5,3.6,9.4,3.7,13,0.2c0.8-0.8,1.5-1.8,2-2.9c1.1-2.2,1.1-4.8,0.2-7.1c-0.6-1.6-1.6-3-2.8-4.1c-0.9-0.8-1.5-1.1-1.5-1.2
						c0.6,0.2,1.2,0.5,1.7,0.9C17.4,2,18.6,3.4,19.3,5c1.1,2.5,1.1,5.3,0,7.8c-2.2,5.1-8.1,7.4-13.1,5.3c-1.3-0.5-2.4-1.3-3.3-2.3
						c-2-2-3-4.6-2.9-7.3c0.1-1.8,0.6-3.5,1.6-5C2,2.9,2.4,2.4,2.9,2z"/>
				</g>
				<g id="Grupo_6468" transform="translate(1220.924 331.717)">
					<path id="Trazado_2907" class="st1" d="M0,22c1.6,0.6,3.4,0.8,5,0.3c1.8-0.5,3.4-1.5,4.6-2.9c1.5-1.7,2.6-3.7,3-6
						c0.4-2.2,0.1-4.5-0.8-6.6C11.1,5.2,10,3.7,8.5,2.5C6,0.5,3.9,0.2,3.9,0c0.5,0,1,0,1.4,0.2c1.3,0.4,2.5,0.9,3.6,1.7
						c1.6,1.2,2.9,2.7,3.8,4.5c1.1,2.2,1.4,4.7,0.9,7.2C13.1,16,12,18.3,10.3,20c-1.3,1.5-3.1,2.5-5.1,3c-1.3,0.3-2.7,0.2-4-0.2
						C0.4,22.4,0,22,0,22z"/>
				</g>
				<g id="Grupo_6477" transform="translate(981.181 648.21)">
					<path id="Trazado_2908" class="st4" d="M134.4,82.2l28.1,8.3c0,0,15.5,6.7,23.1,8.4c9.4,2.1,15.8-0.8,16.1-6s-6.9-5.9-6.9-5.9
						s-11.8-4.5-18-8.3s-10.1-11.4-10.1-11.4l10.1,1.4c0,0,21.2,15.3,29.1,19.8s9.7-3.5,10.4-5.9s-23.6-27-23.6-27
						s23.2,14.9,27.4,18.6s10.4,4.9,11.8,2.5s5.2-2.4,0-12.7s-46.8-38-46.8-38l11.4-2.4l12.5,5.5c0,0,0.7,5.2,5.2,11.9
						s12.5,0,12.5,0l-4.9-25.6L197.2,0c0,0-25.7,3.1-29.5,4.9s-8,9-8,9l-6.9,2.8c-10.7,3.1-10.4,13.9-13.9,14.2S34.3,11.5,34.3,11.5
						l-9.2-2.4C10,20.6,3.9,39.6,1.2,56.5c0,0-2.8,8.3,0,12.8L134.4,82.2z"/>
					<g id="Grupo_6469" transform="translate(115.839 30.854)">
						<path id="Trazado_2909" class="st9" d="M0.1,33.3C0,32.8-0.1,32.2,0,31.7c0-0.7,0-1.3,0.2-1.9c0.1-0.9,0.3-1.7,0.5-2.5
							c0.9-3.7,3.4-8.5,7.1-13c3.1-3.8,6.6-7.3,10.5-10.5c2.9-2.4,4.8-3.8,4.9-3.7s-1.7,1.6-4.5,4.2C15,7.5,11.6,11,8.5,14.8
							c-3.2,3.7-5.6,8-7.2,12.6C0.2,31,0.3,33.3,0.1,33.3z"/>
					</g>
					<g id="Grupo_6470" transform="translate(133.808 13.838)">
						<path id="Trazado_2910" class="st9" d="M26,0c0,0.1-0.8,0.4-2.1,1.5C22,3,20.5,4.8,19.2,6.8c-0.9,1.3-1.7,2.8-2.3,4.3
							c-0.7,1.5-0.7,3.4-1.1,5.4c-0.3,2.1-1,4.2-2.2,6c-1.4,1.7-2.5,3.6-3.4,5.6c-1.3,3.5-1.3,7.3,0,10.7l0.1,0.4L10,39.4
							c-4.4,2.8-7.6,7.2-9,12.3c-0.5,2-0.8,4-0.9,6.1C0,57.2,0,56.6,0,56.1c0-1.5,0.1-3.1,0.5-4.6c1.2-5.3,4.4-9.9,9-12.9l-0.2,0.6
							c-1.4-3.7-1.4-7.7,0-11.4c0.9-2.1,2.1-4.1,3.5-5.8c1.1-1.7,1.9-3.6,2.1-5.6c0.4-1.9,0.4-3.9,1.2-5.6c0.7-1.5,1.5-3,2.5-4.3
							c1.3-2,3-3.8,5-5.2c0.5-0.4,1.1-0.7,1.7-1C25.7,0,25.9,0,26,0z"/>
					</g>
					<g id="Grupo_6471" transform="translate(170.896 20.466)">
						<path id="Trazado_2911" class="st9" d="M13.2,4.7c0,0.2-3.3,0.6-7.2-0.8C2.2,2.6-0.2,0.2,0,0s2.7,1.7,6.4,3
							C10,4.3,13.2,4.4,13.2,4.7z"/>
					</g>
					<g id="Grupo_6472" transform="translate(169.713 44.148)">
						<path id="Trazado_2912" class="st9" d="M20.9,9.1C20.8,9.3,16,7.5,10.3,5S-0.1,0.3,0,0s4.9,1.6,10.6,4.1S21,8.8,20.9,9.1z"/>
					</g>
					<g id="Grupo_6473" transform="translate(157.008 62.555)">
						<path id="Trazado_2913" class="st9" d="M10.8,4.5c-0.1,0.2-2.5-0.8-5.5-2S-0.1,0.3,0,0.1s2.7,0.2,5.7,1.5S10.9,4.3,10.8,4.5z"
							/>
					</g>
					<g id="Grupo_6474" transform="translate(180.267 54.955)">
						<path id="Trazado_2914" class="st9" d="M6.8,0.1c0.1,0.3-2.4,1.1-4.2,3.6C0.7,6,0.4,8.6,0.1,8.5c-0.1,0-0.2-0.6,0-1.7
							c0.6-2.8,2.4-5.2,5-6.4C6.1,0,6.8-0.1,6.8,0.1z"/>
					</g>
					<g id="Grupo_6475" transform="translate(192.423 39.566)">
						<path id="Trazado_2915" class="st9" d="M4.9,0.1c0.1,0.3-1.7,1.2-3,3.3S0.6,7.6,0.3,7.6C0,7.7-0.5,5.3,1,2.9S4.8-0.2,4.9,0.1z
							"/>
					</g>
					<g id="Grupo_6476" transform="translate(193.416 2.645)">
						<path id="Trazado_2916" class="st9" d="M1,9.1C0.9,9.2,0.5,8.7,0.3,7.8c-0.7-2.5,0-5.1,1.8-6.9c0.7-0.7,1.2-1,1.3-0.9
							c0.2,0.2-1.6,1.7-2.2,4.3C0.5,6.9,1.3,9,1,9.1z"/>
					</g>
				</g>
				<g id="Grupo_6486" transform="translate(1279.295 655.567)">
					<path id="Trazado_2917" class="st4" d="M135.5,30.3c0,0-2.5,5.9-4.9,8.8s-10.4,6.9-11,12.4s0.7,18.3-7.9,28.1
						c-5.5,6.1-12.5,10.6-20.3,13.2l-33.8-3.3l-54-21.3c0,0-4.5-1.2-3.4-5.7c0.7-2.7,2.9-4.7,5.6-5.1l1.3-0.2c0,0-3.1-2.5,1.3-7
						c3.8-3.8,11.9-1.7,16.1-0.3s28.7,11.6,33,13.2c3.9,1.4,6.9,2.6,6.9,2.6S33.1,44.6,32.6,41.8c-0.5-3.3-0.2-4.8,3-7.2
						c3.8-2.7,10,0.2,16.1,2.7c4.5,1.9,33.2,16,33.2,16s1.3-1.2,0.1-3.8s-10.8-14.8-12.3-17s-1.9-3.6-0.4-5.5
						c2.1-2.7,7.6-4,12.7,0.6c3.2,3,14.6,10.6,14.6,10.6L152.1,0c0,0,6.5-0.2,4.3,9S135.5,30.3,135.5,30.3z"/>
					<g id="Grupo_6478" transform="translate(86.85 54.295)">
						<path id="Trazado_2918" class="st9" d="M9.5,8c-0.1,0.2-3-0.5-5.7-2.9C1,2.8-0.2,0.1,0,0c0.3-0.2,1.8,2.2,4.4,4.4
							S9.6,7.7,9.5,8z"/>
					</g>
					<g id="Grupo_6479" transform="translate(100.639 39.136)">
						<path id="Trazado_2919" class="st9" d="M0,0.2C0,0.1,0.7-0.1,1.8,0c3,0.5,5.6,2.6,6.6,5.5c0.3,1.1,0.3,1.8,0.2,1.8
							C8.3,7.4,7.8,4.6,5.3,2.6C2.8,0.5,0,0.5,0,0.2z"/>
					</g>
					<g id="Grupo_6480" transform="translate(99.096 38.095)">
						<path id="Trazado_2920" class="st9" d="M4,11.8c-0.3,0-0.4-2.8-1.6-6.1C1.4,2.5-0.2,0.2,0,0s2.2,2,3.4,5.4
							C4.6,8.9,4.3,11.9,4,11.8z"/>
					</g>
					<g id="Grupo_6481" transform="translate(131.317 16.418)">
						<path id="Trazado_2921" class="st9" d="M3,11.1c-0.1,0.1-0.7-0.3-1.4-1.2c-1.7-2.5-2.1-5.6-0.9-8.4c0.5-1,1-1.5,1.1-1.5
							C2,0.1,0.6,2.5,1,5.7S3.2,10.9,3,11.1z"/>
					</g>
					<g id="Grupo_6482" transform="translate(64.843 64.526)">
						<path id="Trazado_2922" class="st9" d="M21.8,11c0,0.1-1.4,0.3-3.7,0c-2.9-0.5-5.8-1.6-8.4-3.1s-5-3.3-7.2-5.2
							C1.6,1.9,0.7,1,0,0c0.1-0.1,1.2,0.7,3,2c2.4,1.8,4.8,3.5,7.3,5s5.2,2.6,8,3.3C20.4,10.8,21.8,10.8,21.8,11z"/>
					</g>
					<g id="Grupo_6483" transform="translate(90.688 70.08)">
						<path id="Trazado_2923" class="st9" d="M4.8,0c0.3,0,0.3,1.9-1.3,3.5C1.9,5,0,5,0,4.7s1.5-0.6,2.8-1.9S4.5,0,4.8,0z"/>
					</g>
					<g id="Grupo_6484" transform="translate(102.064 60.588)">
						<path id="Trazado_2924" class="st9" d="M6.3,0c0.1,0,0.1,0.5-0.2,1.2c-1,1.8-3,2.7-5,2.4C0.3,3.4,0,3.1,0,3
							c0.1-0.3,1.8,0.1,3.5-0.7C5.3,1.5,6.1-0.1,6.3,0z"/>
					</g>
					<g id="Grupo_6485" transform="translate(7.069 57.765)">
						<path id="Trazado_2925" class="st9" d="M55.8,24.4c-0.1,0.2-12.7-5-28.1-11.7S-0.1,0.3,0,0s12.7,5,28.1,11.7
							S55.9,24.1,55.8,24.4z"/>
					</g>
				</g>
				<g id="Grupo_6491" transform="translate(1132.047 548.733)">
					<g id="Grupo_6489">
						<path id="Trazado_2927" class="st1" d="M406.1,9.5l-41.2,202.1H7.6c-3.9,0-7.1-3.2-7.1-7.1l0,0l0,0c0-3.9,3.2-7.1,7.1-7.1
							h71.9l38.2-188c0.7-3.6,3.9-6.2,7.6-6.2l273.1-3c4.3,0,7.8,3.4,7.9,7.7C406.3,8.4,406.2,8.9,406.1,9.5z"/>
						<g id="Grupo_6488">
							<path id="Trazado_2928" class="st6" d="M406.1,9.5c0,0,0-0.2,0.1-0.6c0.1-0.6,0.1-1.2,0-1.8c-0.3-2.5-1.7-4.6-3.8-5.9
								c-0.7-0.4-1.5-0.8-2.4-0.9C399.2,0,398.3,0,397.3,0h-6.4l-16.1,0.1l-103.3,1l-72,0.7l-40.3,0.4L138,2.4l-10.8,0.1
								c-0.9,0-1.8,0-2.8,0.1c-2.9,0.3-5.5,2.2-6.7,4.9c-0.3,0.9-0.6,1.8-0.7,2.7l-0.6,2.7c-0.4,1.8-0.7,3.6-1.1,5.5
								c-0.7,3.7-1.5,7.3-2.2,11c-1.5,7.4-3,14.9-4.6,22.5c-3.1,15.2-6.2,30.7-9.5,46.5C92.6,130.1,85.9,163,79,197l0.5-0.4H38.1
								H16.9h-8c-0.9,0-1.9,0-2.8,0.2c-4.1,0.9-6.7,4.9-5.9,9.1c0.5,2.2,1.9,4,3.8,5.1c1,0.6,2.2,0.9,3.4,0.9h3.3h13.1h25.9h50.8
								c33.4,0,65.7,0,96.7,0l167.8-0.1h0.3l0.1-0.3c12.5-62,22.7-112.5,29.8-147.5c3.5-17.5,6.3-31.1,8.1-40.4
								c0.9-4.6,1.6-8.1,2.1-10.5C405.9,10.7,406.1,9.5,406.1,9.5s-0.3,1.2-0.8,3.6s-1.2,5.9-2.2,10.5c-1.9,9.3-4.7,22.9-8.3,40.3
								c-7.2,35-17.5,85.5-30.2,147.6l0.4-0.3l-167.8-0.1h-96.7H49.7h-26H10.6H7.3c-1,0-2-0.3-2.9-0.8c-3.2-1.8-4.4-5.8-2.7-9
								c0.9-1.7,2.6-2.9,4.5-3.3c0.9-0.1,1.7-0.2,2.6-0.1h8h21.3h41.4H80l0.1-0.4c6.9-34,13.6-66.9,20-98.6
								c3.2-15.8,6.4-31.4,9.4-46.5c1.5-7.6,3.1-15.1,4.6-22.5c0.7-3.7,1.5-7.4,2.2-11c0.4-1.8,0.7-3.7,1.1-5.5l0.6-2.7
								c0.1-0.9,0.4-1.7,0.7-2.6c0.7-1.6,1.9-2.9,3.5-3.7c0.8-0.4,1.6-0.6,2.5-0.7c0.8-0.1,1.8,0,2.7-0.1l10.8-0.1l21.2-0.2
								l40.3-0.5l72-0.8L375,0.7l16.1-0.2l6.4-0.1c0.9-0.1,1.9,0,2.8,0.1c0.8,0.2,1.6,0.5,2.3,0.9c2.1,1.2,3.5,3.4,3.8,5.8
								C406.2,7.9,406.2,8.7,406.1,9.5z"/>
						</g>
					</g>
					<circle id="Elipse_34" class="st10" cx="253.3" cy="102" r="11.8"/>
					<g id="Grupo_6490" transform="translate(89.578 11.042)">
						<path id="Trazado_2929" class="st6" d="M316.2,0.1c0,0-0.4,0-1.2,0h-3.6h-13.9c-12.1,0.1-29.5,0.1-51.1,0.2
							C203.2,0.6,143.6,1,77.8,1.5c-8.2,0.1-16.4,0.1-24.4,0.2h-6c-1,0-2,0-3.1,0.2c-1,0.2-2,0.6-2.9,1.2C39.6,4.2,38.3,6,37.8,8
							c-0.4,2-0.8,3.8-1.2,5.8c-3,15.2-5.9,29.9-8.7,43.9c-5.5,28-10.5,53.2-14.7,74.3c-4.1,21.1-7.5,38.3-9.8,50.1
							c-1.1,5.9-2,10.5-2.6,13.6c-0.3,1.5-0.5,2.7-0.7,3.6C0,200.1,0,200.5,0,200.5s0.1-0.4,0.3-1.2s0.4-2,0.8-3.5
							c0.6-3.1,1.6-7.7,2.8-13.6c2.4-11.9,5.9-29,10.1-50.1c4.2-21.2,9.3-46.3,14.9-74.3c2.8-14,5.7-28.7,8.8-43.9
							c0.4-1.9,0.7-3.9,1.2-5.7c0.8-2.7,3-4.8,5.8-5.4c1-0.1,1.9-0.2,2.9-0.2h6L78,2.4L246.4,1l51.1-0.6l13.9-0.2l3.6-0.1
							C315.8,0.1,316.2,0.1,316.2,0.1z"/>
					</g>
				</g>
			</g>
		</g>
	</g>
</g>
</svg>
