<?xml version="1.0" encoding="utf-8"?>
<!-- Generator: Adobe Illustrator 24.0.0, SVG Export Plug-In . SVG Version: 6.00 Build 0)  -->
<svg version="1.1" id="Capa_1" xmlns="http://www.w3.org/2000/svg" xmlns:xlink="http://www.w3.org/1999/xlink" x="0px" y="0px"
	 viewBox="0 0 397 405" style="enable-background:new 0 0 397 405;" xml:space="preserve">
<style type="text/css">
	.st0{fill:#375A64;}
	.st1{fill:#1A2E35;}
	.st2{fill:#FFFFFF;}
	.st3{fill:#FC7E00;}
	.st4{fill:#FFBF9D;}
	.st5{fill:#FF9A6C;}
	.st6{fill:#E1E1E1;}
	.st7{fill:#FE9900;}
	.st8{opacity:0.3;}
	.st9{fill:#D18B6B;}
	.st10{fill:#7C4235;}
	.st11{fill:#1C3247;}
</style>
<g>
	<g>
		<path class="st0" d="M17.3,335c120,0,243.1,0,369.3,0"/>
	</g>
	<g>
		<g>
			<path class="st1" d="M386.7,335c0,0.1-82.7,0.2-184.7,0.2c-102,0-184.7-0.1-184.7-0.2s82.7-0.2,184.7-0.2
				C304,334.8,386.7,334.9,386.7,335z"/>
		</g>
	</g>
</g>
<g>
	<g>
		<g>
			<g>
				<g>
					<g>
						<g>
							<g>
								<g>
									<g>
										<g>
											<g>
												<path class="st2" d="M315.5,177l3.4-5.7c-1.2-3.6-1.5-7.5-0.6-11.5c2.6-11.4,13.9-18.5,25.3-15.9
													c11.4,2.6,18.5,13.9,15.9,25.3c-2.6,11.4-13.9,18.5-25.3,15.9c-4.7-1.1-8.7-3.7-11.6-7.2l0,0L315.5,177z"/>
											</g>
										</g>
									</g>
									<g>
										<g>
											<g>
												<g>
													<path class="st1" d="M315.5,177c0,0,0.1,0,0.4,0.1c0.3,0,0.8,0.1,1.3,0.2c1.2,0.2,3,0.4,5.3,0.7c0.1,0,0.1,0,0.1-0.1
														c0,0,0,0,0-0.1c0,0,0,0,0,0l-0.2,0.1c1.7,2.1,4.5,4.6,8.4,6.2c2,0.8,4.2,1.4,6.6,1.5c2.4,0.2,5-0.1,7.6-0.9
														c2.6-0.8,5.2-2.1,7.4-4c2.3-1.9,4.2-4.3,5.6-7.2c2.8-5.7,2.8-13.1-0.5-19.2c-1.7-3.1-4.1-5.7-6.9-7.6
														c-2.8-1.9-6-3-9.2-3.4c-3.2-0.4-6.3,0-9.2,0.9c-2.8,0.9-5.4,2.4-7.4,4.2c-4.1,3.6-6.4,8.3-7,12.5
														c-0.7,4.2,0,7.8,0.9,10.4l0-0.1c-1.1,1.9-1.9,3.3-2.5,4.3c-0.3,0.5-0.5,0.8-0.6,1.1C315.6,176.9,315.5,177,315.5,177
														s0.1-0.1,0.2-0.4c0.2-0.3,0.4-0.6,0.7-1.1c0.6-1,1.4-2.4,2.5-4.2c0,0,0-0.1,0-0.1c-0.8-2.6-1.5-6.1-0.8-10.3
														c0.7-4.1,2.9-8.8,7-12.3c2-1.8,4.5-3.2,7.3-4.1c2.8-0.9,5.9-1.2,9-0.8c3.1,0.4,6.2,1.5,9,3.4c2.8,1.8,5.1,4.4,6.7,7.4
														c3.3,6,3.2,13.3,0.5,18.8c-1.3,2.8-3.2,5.2-5.5,7.1c-2.2,1.9-4.7,3.2-7.3,4c-2.5,0.8-5.1,1-7.5,0.9
														c-2.4-0.1-4.6-0.7-6.5-1.5c-3.9-1.6-6.6-4-8.4-6.1c0,0-0.1,0-0.1,0c0,0,0,0.1,0,0.1c0,0,0,0,0,0l0.1-0.1
														c-2.3-0.3-4-0.5-5.2-0.6c-0.6-0.1-1-0.1-1.4-0.2C315.7,177,315.5,177,315.5,177z"/>
												</g>
											</g>
										</g>
									</g>
								</g>
							</g>
						</g>
					</g>
				</g>
			</g>
		</g>
	</g>
	<g>
		<g>
			<g>
				<g>
					<path class="st1" d="M331.9,160.2h3.2c0,0,0-2.7,2.8-2.7c1.5,0,2.2,0.9,2.5,1.7c0.4,0.8,0.2,1.8-0.2,2.6
						c-0.5,0.9-1.7,1.7-3.9,1.3v7.2h3.2V166c0,0,4.5-1.2,4.5-6.1c0-4.7-4.2-5.8-6-5.8C336.5,154.2,331.8,154.5,331.9,160.2z"/>
				</g>
			</g>
		</g>
		<g>
			<g>
				<g>
					<rect x="336.2" y="171.8" class="st1" width="3.2" height="3"/>
				</g>
			</g>
		</g>
	</g>
</g>
<g>
	<g>
		<g>
			<g>
				<path class="st2" d="M361.2,217.7c-2.2-10.8-13-17.1-23.2-14.2c-10,2.9-15.7,13.8-12.4,23.6c1.1,3.3,3.1,6.1,5.5,8.2
					c0.1,0.1,0.2,0.1,0.3,0.2c0,0,0,0,0,0c4.3,2.9,9.6,4.4,14.7,3.7c1.7-0.2,3.4-0.7,4.9-1.4C358.6,234.3,362.9,225.9,361.2,217.7z"
					/>
			</g>
			<g>
				<g>
					<path class="st1" d="M361.2,217.7c0,0,0,0.1,0.1,0.3c0,0.2,0.1,0.5,0.2,0.9c0.1,0.8,0.2,1.9,0.2,3.4c-0.1,1.5-0.3,3.3-1,5.2
						c-0.7,2-1.8,4.1-3.6,6.1c-0.9,1-1.9,1.9-3,2.8c-1.2,0.8-2.5,1.6-3.9,2.1c-2.9,1.1-6.3,1.4-9.8,0.8c-1.7-0.3-3.4-0.8-5.1-1.5
						c-0.8-0.4-1.7-0.8-2.5-1.2c-0.4-0.2-0.8-0.5-1.2-0.7c-0.4-0.3-0.8-0.6-1.1-0.9c-2.8-2.6-4.9-6.2-5.6-10.1c-0.4-2-0.4-4-0.1-5.9
						c0.1-1,0.4-1.9,0.6-2.9c0.2-0.5,0.3-0.9,0.5-1.4c0.1-0.5,0.4-0.9,0.6-1.3c0.8-1.7,1.9-3.3,3.1-4.6l0.5-0.5l0.5-0.5
						c0.3-0.3,0.7-0.6,1-0.9c0.7-0.5,1.4-1.1,2.2-1.5c3-1.8,6.3-2.6,9.4-2.6c0.8,0,1.5,0.1,2.3,0.1c0.7,0.1,1.5,0.3,2.2,0.4
						c0.7,0.2,1.4,0.4,2,0.6c0.6,0.3,1.3,0.5,1.9,0.8c2.4,1.2,4.2,2.7,5.6,4.3c0.7,0.8,1.3,1.6,1.7,2.3c0.5,0.7,0.8,1.5,1.2,2.1
						c0.2,0.3,0.3,0.6,0.4,1c0.1,0.3,0.2,0.6,0.3,0.9c0.2,0.5,0.3,1,0.4,1.4c0.1,0.4,0.1,0.6,0.2,0.9
						C361.2,217.6,361.2,217.7,361.2,217.7c0,0,0-0.1-0.1-0.3c-0.1-0.2-0.1-0.5-0.2-0.8c-0.1-0.4-0.2-0.8-0.4-1.4
						c-0.1-0.3-0.2-0.5-0.3-0.8c-0.1-0.3-0.2-0.6-0.4-0.9c-0.3-0.6-0.7-1.4-1.2-2.1c-0.4-0.8-1.1-1.5-1.7-2.3
						c-1.4-1.5-3.2-3-5.6-4.2c-0.6-0.3-1.2-0.5-1.8-0.8c-0.6-0.2-1.3-0.4-2-0.6c-0.7-0.1-1.4-0.3-2.1-0.4c-0.7,0-1.5-0.2-2.2-0.1
						c-3,0-6.3,0.8-9.2,2.6c-0.8,0.4-1.4,1-2.1,1.5c-0.3,0.3-0.6,0.6-1,0.9l-0.5,0.5l-0.4,0.5c-1.2,1.3-2.2,2.9-3,4.5
						c-0.2,0.4-0.4,0.8-0.6,1.3c-0.2,0.4-0.3,0.9-0.5,1.3c-0.2,0.9-0.5,1.8-0.6,2.8c-0.3,1.9-0.3,3.9,0.1,5.8
						c0.7,3.9,2.7,7.4,5.4,9.9c0.3,0.3,0.7,0.6,1.1,0.9c0.4,0.3,0.8,0.5,1.2,0.7c0.8,0.5,1.6,0.9,2.4,1.2c1.6,0.7,3.3,1.2,5,1.5
						c3.4,0.6,6.7,0.3,9.6-0.8c1.4-0.5,2.7-1.3,3.9-2.1c1.1-0.8,2.2-1.7,3-2.7c1.7-1.9,2.8-4.1,3.6-6c0.7-1.9,1-3.7,1.1-5.2
						c0.1-1.5,0-2.6-0.1-3.3c0-0.4-0.1-0.7-0.1-0.9C361.2,217.8,361.2,217.7,361.2,217.7z"/>
				</g>
			</g>
		</g>
		<g>
			<g>
				<g>
					<g>
						<path class="st3" d="M337.1,217.9h2.8c0,0,0-2.4,2.4-2.4c1.3,0,1.9,0.8,2.2,1.4c0.3,0.7,0.2,1.6-0.2,2.3
							c-0.5,0.8-1.5,1.5-3.4,1.2l0,6.3h2.8v-3.7c0,0,3.9-1,3.9-5.3c0-4.1-3.7-5.1-5.2-5.1C341.2,212.7,337.1,213,337.1,217.9z"/>
					</g>
				</g>
			</g>
			<g>
				<g>
					<g>
						<rect x="340.9" y="228.1" class="st3" width="2.8" height="2.6"/>
					</g>
				</g>
			</g>
		</g>
	</g>
	<g>
		<g>
			<path class="st2" d="M321.4,221.1c0,2.1-1.7,3.7-3.7,3.7c-2.1,0-3.7-1.7-3.7-3.7c0-2.1,1.7-3.7,3.7-3.7
				C319.8,217.4,321.4,219,321.4,221.1z"/>
		</g>
		<g>
			<g>
				<path class="st1" d="M321.4,221.1c0,0,0-0.3-0.2-0.9c-0.2-0.5-0.5-1.3-1.4-2c-0.8-0.6-2.1-1-3.4-0.5c-1.3,0.4-2.3,1.8-2.3,3.3
					c0,1.6,1.1,2.9,2.3,3.3c1.3,0.5,2.6,0.1,3.4-0.5c0.8-0.6,1.2-1.4,1.4-2C321.4,221.4,321.4,221.1,321.4,221.1c0,0,0,0.1,0,0.2
					c0,0.2,0,0.4-0.1,0.7c-0.1,0.6-0.5,1.5-1.3,2.1c-0.8,0.7-2.3,1.1-3.7,0.6c-1.4-0.5-2.6-1.9-2.6-3.7c0-1.7,1.2-3.2,2.6-3.7
					c1.4-0.5,2.8-0.1,3.7,0.6c0.9,0.7,1.2,1.6,1.3,2.1c0.1,0.3,0.1,0.5,0.1,0.7C321.5,221,321.5,221.1,321.4,221.1z"/>
			</g>
		</g>
	</g>
</g>
<g>
	<g>
		<g>
			<g>
				<path class="st2" d="M326.6,116c-2.2-11.2-13.4-17.6-23.9-14.6c-10.3,3-16.2,14.2-12.8,24.3c1.1,3.4,3.2,6.3,5.7,8.4
					c0.1,0.1,0.2,0.1,0.3,0.2c0,0,0,0,0,0c4.5,3,9.9,4.5,15.2,3.8c1.8-0.2,3.5-0.7,5-1.4C323.9,133.1,328.3,124.4,326.6,116z"/>
			</g>
			<g>
				<g>
					<path class="st1" d="M326.6,116c0,0,0,0.1,0.1,0.3c0,0.2,0.1,0.5,0.2,0.9c0.1,0.8,0.2,2,0.2,3.5c-0.1,1.5-0.4,3.4-1.1,5.4
						c-0.7,2-1.9,4.2-3.7,6.3c-0.9,1-1.9,2-3.1,2.9c-1.2,0.8-2.5,1.7-4,2.2c-3,1.1-6.5,1.4-10.1,0.8c-1.8-0.3-3.6-0.8-5.3-1.6
						c-0.9-0.4-1.7-0.8-2.5-1.3c-0.4-0.2-0.8-0.5-1.2-0.8c-0.4-0.3-0.8-0.6-1.1-0.9c-2.9-2.7-5-6.3-5.7-10.4c-0.4-2-0.4-4.1-0.1-6.1
						c0.1-1,0.4-2,0.6-2.9c0.2-0.5,0.3-0.9,0.5-1.4c0.2-0.5,0.4-0.9,0.6-1.3c0.9-1.8,1.9-3.4,3.2-4.8l0.5-0.5l0.5-0.5
						c0.3-0.3,0.7-0.6,1-0.9c0.7-0.6,1.4-1.1,2.2-1.6c3.1-1.9,6.5-2.7,9.7-2.7c0.8,0,1.6,0.1,2.3,0.1c0.8,0.1,1.5,0.3,2.2,0.4
						c0.7,0.2,1.4,0.4,2.1,0.6c0.6,0.3,1.3,0.5,1.9,0.8c2.4,1.2,4.3,2.8,5.8,4.4c0.7,0.8,1.3,1.6,1.8,2.4c0.5,0.8,0.9,1.5,1.2,2.2
						c0.2,0.3,0.3,0.7,0.4,1c0.1,0.3,0.2,0.6,0.3,0.9c0.2,0.5,0.3,1,0.4,1.4c0.1,0.4,0.2,0.7,0.2,0.9
						C326.6,115.9,326.6,116,326.6,116c0,0,0-0.1-0.1-0.3c-0.1-0.2-0.1-0.5-0.2-0.9c-0.1-0.4-0.2-0.9-0.4-1.4
						c-0.1-0.3-0.2-0.6-0.3-0.9c-0.1-0.3-0.2-0.6-0.4-1c-0.3-0.7-0.7-1.4-1.2-2.2c-0.5-0.8-1.1-1.5-1.8-2.4
						c-1.4-1.6-3.3-3.1-5.7-4.3c-0.6-0.3-1.2-0.5-1.9-0.8c-0.7-0.2-1.4-0.4-2-0.6c-0.7-0.1-1.4-0.3-2.2-0.4c-0.8,0-1.5-0.2-2.3-0.1
						c-3.1,0-6.5,0.8-9.5,2.7c-0.8,0.4-1.5,1-2.2,1.5c-0.4,0.3-0.7,0.6-1,0.9l-0.5,0.5l-0.5,0.5c-1.3,1.3-2.3,2.9-3.1,4.7
						c-0.2,0.4-0.4,0.9-0.6,1.3c-0.2,0.5-0.3,0.9-0.5,1.4c-0.2,0.9-0.5,1.9-0.6,2.9c-0.3,2-0.3,4,0.1,6c0.7,4,2.8,7.6,5.6,10.2
						c0.4,0.3,0.7,0.6,1.1,0.9c0.4,0.3,0.8,0.5,1.2,0.8c0.8,0.5,1.6,0.9,2.5,1.3c1.7,0.7,3.4,1.3,5.2,1.6c3.5,0.6,6.9,0.3,9.9-0.8
						c1.5-0.5,2.8-1.3,4-2.2c1.2-0.9,2.2-1.8,3.1-2.8c1.8-2,2.9-4.2,3.7-6.2c0.7-2,1-3.8,1.1-5.3c0.1-1.5,0-2.7-0.1-3.5
						c-0.1-0.4-0.1-0.7-0.1-0.9C326.6,116.1,326.6,116,326.6,116z"/>
				</g>
			</g>
		</g>
		<g>
			<g>
				<g>
					<g>
						<path class="st3" d="M301.7,116.3h2.9c0,0,0-2.4,2.5-2.5c1.3,0,2,0.8,2.3,1.5c0.3,0.8,0.2,1.6-0.2,2.3
							c-0.5,0.8-1.6,1.5-3.5,1.2v6.5h2.9v-3.8c0,0,4-1,4-5.5c0-4.2-3.8-5.2-5.4-5.2C305.9,110.9,301.7,111.2,301.7,116.3z"/>
					</g>
				</g>
			</g>
			<g>
				<g>
					<g>
						<rect x="305.7" y="126.7" class="st3" width="2.9" height="2.7"/>
					</g>
				</g>
			</g>
		</g>
	</g>
	<g>
		<g>
			<path class="st2" d="M295.3,141.6c0,2.1-1.7,3.8-3.8,3.8c-2.1,0-3.8-1.7-3.8-3.8c0-2.1,1.7-3.8,3.8-3.8
				C293.5,137.8,295.3,139.5,295.3,141.6z"/>
		</g>
		<g>
			<g>
				<path class="st1" d="M295.3,141.6c0,0,0-0.3-0.2-0.9c-0.2-0.6-0.6-1.4-1.4-2c-0.8-0.6-2.2-1-3.5-0.5c-1.3,0.4-2.4,1.8-2.4,3.4
					c0,1.6,1.1,3,2.4,3.4c1.3,0.5,2.7,0.1,3.5-0.5c0.9-0.6,1.2-1.5,1.4-2C295.2,142,295.2,141.6,295.3,141.6c0,0,0,0.1,0,0.2
					c0,0.2,0,0.4-0.1,0.7c-0.1,0.6-0.5,1.5-1.4,2.2c-0.9,0.7-2.3,1.1-3.8,0.6c-1.4-0.5-2.7-2-2.7-3.8c0-1.8,1.2-3.3,2.7-3.8
					c1.4-0.5,2.9-0.1,3.8,0.6c0.9,0.7,1.3,1.6,1.4,2.2c0.1,0.3,0.1,0.5,0.1,0.7C295.3,141.5,295.3,141.6,295.3,141.6z"/>
			</g>
		</g>
	</g>
</g>
<g>
	<g>
		<g>
			<path class="st2" d="M143.1,83.8H90.9c-7.5,0-13.6,6.1-13.6,13.6v25.8c0,7.5,6.1,13.6,13.6,13.6h38.9l6.7,11.1l6.3-11.1h0.4
				c7.5,0,13.6-6.1,13.6-13.6V97.4C156.7,89.9,150.6,83.8,143.1,83.8z"/>
		</g>
		<g>
			<g>
				<path class="st1" d="M143.1,83.8c0,0,0.1,0,0.3,0c0.2,0,0.5,0,1,0c0.4,0,0.9,0.1,1.6,0.2c0.6,0.2,1.3,0.3,2.1,0.6
					c1.5,0.6,3.3,1.6,5,3.3c0.8,0.8,1.6,1.9,2.2,3.1c0.6,1.2,1.1,2.6,1.4,4.1c0.3,1.5,0.2,3.1,0.2,4.8c0,1.7,0,3.4,0,5.2
					c0,3.6,0,7.6,0,11.8c0,2.1,0,4.3,0,6.5c0,2.2-0.6,4.6-1.8,6.6c-0.6,1-1.3,2-2.2,2.9c-0.9,0.8-1.8,1.7-2.9,2.3
					c-1.1,0.6-2.2,1.1-3.5,1.4c-0.6,0.2-1.3,0.3-1.9,0.4c-0.6,0.1-1.3,0.1-1.9,0.1l0.2-0.1c-2,3.5-4.1,7.3-6.3,11.1l-0.2,0.3
					l-0.2-0.3c-2.1-3.5-4.4-7.3-6.7-11.1l0.2,0.1c-10.2,0-21.2,0-32.5,0c-2.2,0-4.4,0-6.6,0c-2.2,0-4.4-0.6-6.3-1.6
					c-3.8-2-6.6-5.9-7.2-10.1l-0.1-0.8l0-0.8c0-0.5,0-1,0-1.6c0-1,0-2,0-3.1c0-2,0-4,0-6c0-4,0-7.9,0-11.7c0-1,0-1.9,0-2.8
					c0-0.9,0-1.9,0.1-2.8c0.2-1.9,0.8-3.7,1.7-5.2c1.8-3.2,4.8-5.5,8.1-6.4c0.4-0.1,0.8-0.2,1.2-0.3c0.4-0.1,0.8-0.1,1.3-0.2
					c0.8-0.1,1.7-0.1,2.5-0.1c1.6,0,3.2,0,4.8,0c3.1,0,6.2,0,9,0c11.5,0,20.8,0,27.3,0.1c3.2,0,5.7,0,7.4,0c0.8,0,1.5,0,1.9,0
					C142.9,83.8,143.1,83.8,143.1,83.8s-0.2,0-0.7,0c-0.4,0-1.1,0-1.9,0c-1.7,0-4.2,0-7.4,0c-6.5,0-15.8,0-27.3,0.1
					c-2.9,0-5.9,0-9,0c-1.6,0-3.2,0-4.8,0c-0.4,0-0.8,0-1.2,0c-0.4,0-0.8,0-1.2,0.1c-0.4,0.1-0.8,0.1-1.2,0.2
					c-0.4,0.1-0.8,0.2-1.2,0.3c-3.2,0.9-6.2,3.2-7.9,6.3c-0.9,1.5-1.5,3.3-1.7,5.1c-0.1,0.9-0.1,1.8-0.1,2.8c0,0.9,0,1.9,0,2.8
					c0,3.8,0,7.7,0,11.7c0,2,0,4,0,6c0,1,0,2,0,3.1c0,0.5,0,1,0,1.5l0,0.8l0.1,0.8c0.6,4,3.3,7.8,7,9.8c1.9,1,4,1.5,6.1,1.5
					c2.2,0,4.4,0,6.5,0c11.3,0,22.2,0,32.5,0h0.1l0.1,0.1c2.3,3.8,4.6,7.6,6.7,11.1l-0.3,0c2.2-3.9,4.3-7.6,6.3-11.1l0.1-0.1l0.1,0
					c0.6,0,1.3,0,1.9-0.1c0.6-0.1,1.2-0.2,1.8-0.3c1.2-0.3,2.4-0.8,3.4-1.4c1.1-0.6,2-1.4,2.9-2.2c0.8-0.9,1.5-1.8,2.1-2.8
					c1.2-2,1.7-4.3,1.8-6.5c0-2.2,0-4.4,0-6.5c0-4.2,0-8.1,0-11.8c0-1.8,0-3.6,0-5.2c0-1.7,0.1-3.3-0.2-4.7c-0.3-1.5-0.7-2.8-1.4-4
					c-0.6-1.2-1.4-2.2-2.2-3c-1.6-1.7-3.4-2.7-4.9-3.3c-0.8-0.3-1.5-0.5-2-0.6c-0.6-0.1-1.1-0.2-1.5-0.2c-0.4,0-0.7,0-1-0.1
					C143.2,83.8,143.1,83.8,143.1,83.8z"/>
			</g>
		</g>
	</g>
	<g>
		<g>
			<path class="st1" d="M145.8,97.8c0,0.1-12.9,0.2-28.9,0.2c-15.9,0-28.9-0.1-28.9-0.2s12.9-0.2,28.9-0.2
				C132.9,97.6,145.8,97.7,145.8,97.8z"/>
		</g>
	</g>
	<g>
		<g>
			<path class="st1" d="M145.8,104c0,0.1-12.9,0.2-28.9,0.2c-15.9,0-28.9-0.1-28.9-0.2s12.9-0.2,28.9-0.2
				C132.9,103.8,145.8,103.9,145.8,104z"/>
		</g>
	</g>
	<g>
		<g>
			<path class="st1" d="M145.8,110.3c0,0.1-12.9,0.2-28.9,0.2c-15.9,0-28.9-0.1-28.9-0.2s12.9-0.2,28.9-0.2
				C132.9,110.1,145.8,110.2,145.8,110.3z"/>
		</g>
	</g>
	<g>
		<g>
			<path class="st1" d="M145.8,116.6c0,0.1-12.9,0.2-28.9,0.2c-15.9,0-28.9-0.1-28.9-0.2s12.9-0.2,28.9-0.2
				C132.9,116.4,145.8,116.4,145.8,116.6z"/>
		</g>
	</g>
	<g>
		<g>
			<path class="st1" d="M145.8,122.8c0,0.1-12.9,0.2-28.9,0.2c-15.9,0-28.9-0.1-28.9-0.2c0-0.1,12.9-0.2,28.9-0.2
				C132.9,122.6,145.8,122.7,145.8,122.8z"/>
		</g>
	</g>
</g>
<g>
	<g>
		<g>
			<path class="st2" d="M183.8,34h-59c-5.7,0-10.3,4.6-10.3,10.3V65c0,5.7,4.6,10.3,10.3,10.3h42.2l6.7,11.1l6.3-11.1h3.8
				c5.7,0,10.3-4.6,10.3-10.3V44.3C194.1,38.6,189.5,34,183.8,34z"/>
		</g>
		<g>
			<g>
				<path class="st1" d="M183.8,34c0,0,0.4,0,1,0c0.7,0.1,1.7,0.2,2.9,0.7c1.2,0.5,2.7,1.4,3.9,2.9c0.6,0.7,1.2,1.6,1.6,2.6
					c0.4,1,0.7,2.2,0.8,3.4c0.1,5,0,11,0.1,17.9c0,0.9,0,1.7,0,2.6c0,0.9,0,1.8-0.2,2.7c-0.4,1.8-1.2,3.6-2.6,5.1
					c-0.7,0.7-1.4,1.4-2.3,1.9c-0.9,0.5-1.8,0.9-2.8,1.2c-0.5,0.2-1,0.2-1.5,0.3c-0.5,0-1.1,0.1-1.6,0.1c-1,0-2.1,0-3.2,0l0.2-0.1
					c-2,3.5-4.1,7.3-6.3,11.1l-0.2,0.3l-0.2-0.3c-2.1-3.5-4.4-7.3-6.7-11.1l0.2,0.1c-11.1,0-23.2,0-35.8,0c-2,0-4.1,0-6.1,0
					c-2,0-4.1-0.5-5.8-1.6c-1.7-1.1-3.1-2.6-4-4.4c-0.9-1.8-1.1-3.9-1-5.8c0-3.9,0-7.6,0-11.3c0-1.9,0-3.7,0-5.5c0-0.9,0-1.8,0-2.7
					c0-0.9,0.1-1.8,0.4-2.7c0.5-1.7,1.4-3.3,2.7-4.6c1.3-1.2,2.8-2.2,4.4-2.6c0.8-0.2,1.7-0.4,2.5-0.4c0.8,0,1.7,0,2.5,0
					c1.6,0,3.2,0,4.8,0c6.3,0,12.2,0,17.5,0c10.7,0,19.4,0,25.4,0.1c3,0,5.3,0,6.9,0c0.8,0,1.4,0,1.8,0C183.6,34,183.8,34,183.8,34
					s-0.2,0-0.6,0c-0.4,0-1,0-1.8,0c-1.6,0-3.9,0-6.9,0c-6,0-14.7,0-25.4,0.1c-5.4,0-11.2,0-17.5,0c-1.6,0-3.2,0-4.8,0
					c-1.6,0-3.3-0.1-4.9,0.4c-1.6,0.5-3.1,1.4-4.3,2.6c-1.2,1.2-2.1,2.7-2.6,4.4c-0.5,1.7-0.4,3.5-0.4,5.3c0,1.8,0,3.6,0,5.5
					c0,3.7,0,7.5,0,11.3c0,1,0,1.9,0.1,2.9c0.1,0.9,0.4,1.9,0.8,2.7c0.8,1.7,2.1,3.3,3.8,4.3c1.7,1,3.6,1.6,5.6,1.5c2,0,4,0,6.1,0
					c12.6,0,24.7,0,35.8,0h0.1l0.1,0.1c2.3,3.9,4.6,7.6,6.7,11.1l-0.3,0c2.2-3.9,4.3-7.6,6.3-11.1l0-0.1l0.1,0c1.1,0,2.1,0,3.2,0
					c0.5,0,1,0,1.5,0c0.5-0.1,1-0.1,1.5-0.3c1-0.2,1.9-0.6,2.7-1.1c0.8-0.5,1.6-1.1,2.2-1.8c1.3-1.4,2.1-3.1,2.5-4.9
					c0.2-0.9,0.2-1.8,0.2-2.7c0-0.9,0-1.8,0-2.6c0-6.9,0.1-13,0-17.9c-0.1-1.2-0.3-2.4-0.8-3.4c-0.4-1-1-1.9-1.6-2.6
					c-1.2-1.5-2.6-2.4-3.9-2.9C185.3,33.8,183.8,34.1,183.8,34z"/>
			</g>
		</g>
	</g>
	<g>
		<g>
			<path class="st2" d="M127.1,48.5c19.2,0,38.5,0,57.7,0"/>
		</g>
		<g>
			<g>
				<path class="st1" d="M184.8,48.5c0,0.1-12.9,0.2-28.9,0.2c-15.9,0-28.9-0.1-28.9-0.2c0-0.1,12.9-0.2,28.9-0.2
					C171.9,48.3,184.8,48.4,184.8,48.5z"/>
			</g>
		</g>
	</g>
	<g>
		<g>
			<path class="st2" d="M127.1,54.8c19.2,0,38.5,0,57.7,0"/>
		</g>
		<g>
			<g>
				<path class="st1" d="M184.8,54.8c0,0.1-12.9,0.2-28.9,0.2c-15.9,0-28.9-0.1-28.9-0.2c0-0.1,12.9-0.2,28.9-0.2
					C171.9,54.6,184.8,54.7,184.8,54.8z"/>
			</g>
		</g>
	</g>
	<g>
		<g>
			<path class="st2" d="M127.1,61c19.2,0,38.5,0,57.7,0"/>
		</g>
		<g>
			<g>
				<path class="st1" d="M184.8,61c0,0.1-12.9,0.2-28.9,0.2c-15.9,0-28.9-0.1-28.9-0.2s12.9-0.2,28.9-0.2
					C171.9,60.8,184.8,60.9,184.8,61z"/>
			</g>
		</g>
	</g>
</g>
<g>
	<g>
		<g>
			<g>
				<path class="st1" d="M309.7,199.2c-0.7-0.9-1.7-1.7-1.9-2.8c-0.2-1.1,0.3-2.2,0.5-3.3c0.7-3-1.2-6.4-4.2-7.4
					c-1.7-0.6-3.8-0.6-4.7-2.2c-0.8-1.5,0.2-3.4,0.9-5c1-2.7,0.8-5.9-0.7-8.4c-0.2-0.6-0.4-1.1-0.7-1.7c-2.2-4.3-6.7-7.2-11.3-7.3
					c-0.7-3.6-3.6-6.3-7-7c0-1.3-0.3-2.5-0.8-3.7c-1.6-3.2-5.1-5.1-8.7-5.7c-5.1-0.8-10.7,1-14.3,4.7c-2,2-3.6,4.7-6.2,5.6
					c-2.3,0.8-4.9,0.1-7.4,0.4c-3.3,0.4-6.1,2.8-7.8,5.6c-1.7,2.9-2.4,6.2-2.8,9.5c-0.4,3-0.6,6.3-2.7,8.6c-2,2.2-5.3,2.6-7.8,4.1
					c-4.8,2.9-6.3,10-3.2,14.6c1,1.5,2.5,2.8,2.6,4.6c0.1,1.6-0.9,3.1-1.4,4.6c-1.3,4,2,8.7,6.2,9c2.1,0.1,4.4-0.7,6.3,0.2
					c1.9,0.9,2.6,3.2,3.8,4.9c2.4,3.4,7.3,4.7,11,2.8c1.6-0.8,3-2,4.7-1.9c1.7,0.1,3.1,1.6,4.8,1.9c2.2,0.4,4.3-1.2,5.6-3
					c1.3-1.8,2.2-4,3.9-5.5c2.2-2,5.3-2.5,8.1-3.4c4-1.4,7.6-4,10.3-7.2l-0.3,15.6c2.3,0,3.7-0.8,4.5-2c0.5,0.3,1,0.6,1.5,0.8
					c2.7,0.9,6-0.1,7.7-2.4c0.9-1.2,1.5-2.7,2.7-3.5c1.1-0.7,2.5-0.6,3.8-0.9c2.8-0.5,5.3-2.6,6.3-5.3
					C312.1,204.6,311.5,201.4,309.7,199.2z"/>
			</g>
			<g>
				<g>
					<g>
						<g>
							<path class="st4" d="M257.3,162.8L257.3,162.8c-3.2,2-10.6,11-10.7,13.6l0.8,53.6c-0.1,4-0.8,7.5,1.5,10.8l0,0
								c6.5,7.8,21.7,8.8,25.1,2.3c0.3-0.5,0.5-0.9,0.6-1.3c0.1-0.5,0.3-0.9,0.3-1.3c0.9-4.5,0.8-8.9,0.8-8.9
								c0.5-5.2,0.6-7.4,0.6-7.3c0,0,11.2-1,14.6-15.3c1.7-7.1,2.2-18.9,2.3-28.6c0-1.6-0.4-3.5-1.1-5.5
								c-4.2-11.1-13.7-16.5-25.2-15.5C263.9,159.6,259.5,160.9,257.3,162.8z"/>
						</g>
					</g>
					<g>
						<g>
							<g>
								<g>
									<g>
										<g>
											<g>
												<g>
													<g>
														<g>
															<g>
																<g>
																	<g>
																		<g>
																			<g>
																				<g>
																					<path class="st1" d="M276.7,200.6c0-0.1,1.3-0.2,3.3-0.3c0.5,0,1-0.1,1.1-0.4c0.1-0.4,0-0.9-0.2-1.5
																						c-0.4-1.3-0.8-2.6-1.2-4c-1.7-5.7-2.9-10.3-2.6-10.4c0.2-0.1,1.8,4.5,3.5,10.1c0.4,1.4,0.8,2.7,1.2,4
																						c0.1,0.6,0.4,1.3,0.1,2c-0.2,0.4-0.6,0.6-0.9,0.7c-0.3,0.1-0.6,0.1-0.9,0.1
																						C277.9,200.8,276.7,200.7,276.7,200.6z"/>
																				</g>
																			</g>
																		</g>
																	</g>
																</g>
															</g>
														</g>
													</g>
												</g>
											</g>
										</g>
									</g>
								</g>
							</g>
							<g>
								<g>
									<g>
										<g>
											<g>
												<g>
													<g>
														<g>
															<g>
																<g>
																	<g>
																		<g>
																			<g>
																				<path class="st5" d="M276.3,224.3c0,0-9.8-0.1-19-6.6c0,0,4.1,10.4,18.7,10.1L276.3,224.3z"/>
																			</g>
																		</g>
																	</g>
																</g>
															</g>
														</g>
													</g>
												</g>
											</g>
										</g>
									</g>
								</g>
							</g>
							<g>
								<g>
									<g>
										<g>
											<g>
												<g>
													<g>
														<g>
															<g>
																<g>
																	<g>
																		<g>
																			<g>
																				<path class="st5" d="M275.5,205.3c-0.6-1-1.9-1.6-3.1-1.6c-0.9,0-1.8,0.4-2.4,1c-0.6,0.7-0.8,1.7-0.3,2.4
																					c0.5,0.8,1.6,1.1,2.6,0.9c1-0.2,1.8-0.8,2.7-1.3c0.2-0.2,0.5-0.3,0.6-0.5C275.7,205.9,275.7,205.6,275.5,205.3"
																					/>
																			</g>
																		</g>
																	</g>
																</g>
															</g>
														</g>
													</g>
												</g>
											</g>
										</g>
									</g>
								</g>
							</g>
							<g>
								<g>
									<g>
										<g>
											<g>
												<g>
													<g>
														<g>
															<g>
																<g>
																	<g>
																		<g>
																			<g>
																				<g>
																					<path class="st1" d="M270.7,201.5c0.3,0,0.2,2.2,1.9,3.8c1.7,1.7,4.1,1.6,4.1,1.9c0,0.1-0.5,0.4-1.5,0.3
																						c-1,0-2.3-0.4-3.4-1.5c-1.1-1-1.5-2.3-1.5-3.2C270.3,202,270.6,201.5,270.7,201.5z"/>
																				</g>
																			</g>
																		</g>
																	</g>
																</g>
															</g>
														</g>
													</g>
												</g>
											</g>
										</g>
									</g>
								</g>
							</g>
						</g>
					</g>
					<g>
						<g>
							<g>
								<g>
									<g>
										<g>
											<g>
												<g>
													<g>
														<g>
															<g>
																<g>
																	<path class="st1" d="M270.4,179.9c-0.2,0.5-2.2,0.1-4.6,0.2c-2.4,0.1-4.3,0.6-4.6,0.1c-0.1-0.2,0.2-0.7,1-1.2
																		c0.8-0.5,2-0.9,3.5-0.9c1.4,0,2.7,0.3,3.5,0.7C270.1,179.2,270.5,179.6,270.4,179.9z"/>
																</g>
															</g>
														</g>
													</g>
												</g>
											</g>
										</g>
									</g>
								</g>
							</g>
						</g>
					</g>
					<g>
						<g>
							<g>
								<g>
									<g>
										<g>
											<g>
												<g>
													<g>
														<g>
															<g>
																<g>
																	<path class="st1" d="M290.2,179.9c-0.5,0.4-2.1-0.2-4-0.3c-2-0.2-3.7,0-4-0.5c-0.2-0.2,0.1-0.7,0.9-1.1
																		c0.7-0.4,2-0.6,3.3-0.5c1.3,0.1,2.5,0.6,3.1,1.1C290.2,179.2,290.4,179.7,290.2,179.9z"/>
																</g>
															</g>
														</g>
													</g>
												</g>
											</g>
										</g>
									</g>
								</g>
							</g>
						</g>
					</g>
					<g>
						<g>
							<g>
								<g>
									<g>
										<g>
											<path class="st4" d="M249.5,195.1c0.1-1.1-1-3.7-2-3.9c-2.8-0.7-7.9-0.8-8.5,6.4c-0.8,9.8,9.2,8.6,9.3,8.3
												C248.3,205.6,249.3,198.8,249.5,195.1z"/>
										</g>
									</g>
								</g>
							</g>
						</g>
					</g>
					<g>
						<g>
							<g>
								<g>
									<g>
										<g>
											<g>
												<path class="st5" d="M245.6,201.9c0,0-0.2,0.1-0.5,0.2c-0.3,0.1-0.8,0.2-1.3-0.1c-1-0.5-1.8-2.2-1.7-4
													c0-0.9,0.3-1.7,0.7-2.4c0.4-0.7,0.9-1.2,1.4-1.2c0.5-0.1,0.9,0.3,1,0.6c0.1,0.3,0,0.5,0.1,0.5c0,0,0.2-0.1,0.2-0.6
													c0-0.2-0.1-0.4-0.3-0.6c-0.2-0.2-0.6-0.3-0.9-0.3c-0.8,0-1.5,0.6-1.9,1.4c-0.5,0.7-0.8,1.7-0.8,2.7
													c-0.1,2,0.8,3.9,2.2,4.5c0.7,0.2,1.3,0.1,1.6-0.1C245.5,202.1,245.6,201.9,245.6,201.9z"/>
											</g>
										</g>
									</g>
								</g>
							</g>
						</g>
					</g>
				</g>
				<g>
					<g>
						<path class="st0" d="M245.6,176.4C245.6,175.9,245.4,176.9,245.6,176.4L245.6,176.4z"/>
					</g>
					<g>
						<path class="st3" d="M285.9,162.6c-3.7-2.5-6.7-5.3-15.6-5.3c-6.9,0-12,4-17.4,8.8c-7,6.1-11.4,16-8.5,24.8l0,0l2.9,1.1
							l2.8-6.7c4.8-10.5,14.8-19.2,25.6-19.8c1.1-0.1,2.1,0,3,0c7.1,0.7,14.4,13.7,14.4,13.7S294.5,168.4,285.9,162.6z"/>
					</g>
				</g>
			</g>
			<g>
				<path class="st1" d="M247.4,192c0.2,2,0.5,3.9,0.6,5.9c0.1,0.9,0.3,1.9,1.1,2.1c0.6,0.2,1.2-0.2,1.5-0.8
					c0.3-0.5,0.4-1.2,0.4-1.8c0.6-6.2,1.1-10.9,1.7-17.1C251.1,182.9,249.2,187.2,247.4,192z"/>
			</g>
			<g>
				<g>
					<path class="st6" d="M245.8,207.5c0,0,0.1,0.2-0.1,0.5c-0.1,0.3-0.5,0.7-1,1c-0.6,0.3-1.4,0.3-2.1,0.1
						c-0.8-0.3-1.5-0.9-1.9-1.8c-0.3-0.9-0.2-1.9,0.3-2.6c0.4-0.7,1.1-1.1,1.7-1.3c0.6-0.2,1.1-0.1,1.4-0.1c0.3,0.1,0.5,0.2,0.5,0.2
						c0,0.1-0.7-0.2-1.8,0.2c-0.5,0.2-1.1,0.6-1.5,1.2c-0.4,0.6-0.5,1.5-0.2,2.3c0.3,0.8,0.9,1.4,1.6,1.6c0.7,0.3,1.4,0.2,1.9,0
						c0.5-0.2,0.8-0.5,1-0.8C245.7,207.7,245.7,207.5,245.8,207.5z"/>
				</g>
			</g>
			<g>
				<path class="st1" d="M266.5,168c0,0,7.8,2.1,10.4,1.3c3-0.9,4.3-3.2,4.3-3.2S275.1,163.4,266.5,168z"/>
			</g>
			<g>
				<g>
					<path class="st1" d="M309.7,187.9c0,0,0.4-0.3,0.8-1c0.5-0.7,1-1.9,0.8-3.4c-0.1-1.5-1-3.2-2.7-4.5c-1.6-1.2-4-1.8-6.4-1.7
						l-0.3,0l0.2-0.3c0.8-1.6,1.5-3.4,1.8-5.3c0.2-1.5,0.2-3.1-0.3-4.5c-0.5-1.4-1.3-2.6-2.3-3.4c-2.1-1.8-4.6-2.4-6.6-2.6
						c-2.1-0.2-3.7,0-4.9,0.1c-0.5,0.1-1,0.1-1.3,0.2c-0.3,0-0.5,0.1-0.5,0c0,0,0.2-0.1,0.5-0.1c0.3-0.1,0.7-0.2,1.3-0.2
						c1.1-0.2,2.8-0.4,4.9-0.3c2.1,0.1,4.6,0.8,6.8,2.6c1.1,0.9,2,2.1,2.5,3.6c0.5,1.5,0.6,3.1,0.3,4.7c-0.3,2-1.1,3.8-1.9,5.4
						l-0.2-0.3c2.5-0.2,5,0.5,6.7,1.8c1.7,1.3,2.6,3.1,2.7,4.7c0.1,1.6-0.5,2.8-1,3.5C310.1,187.7,309.7,187.9,309.7,187.9z"/>
				</g>
			</g>
			<g>
				<g>
					<path class="st1" d="M228.9,204.5c0,0-0.1,0-0.2,0c-0.2,0-0.4,0-0.6,0c-0.5,0-1.4-0.1-2.4-0.2c-1-0.1-2.3-0.3-3.7-0.9
						c-1.4-0.5-2.9-1.4-4.1-3c-1.2-1.5-1.6-3.7-1.5-5.9c0-1.1,0.2-2.2,0.3-3.4c0.2-1.2,0.3-2.4,0.7-3.6c0.4-1.2,1.1-2.4,2.2-3.1
						c1.1-0.8,2.6-0.9,3.9-0.9c1.3,0,2.7,0.1,3.8-0.7c1.1-0.8,1.6-2.2,1.7-3.5c0.1-1.4-0.1-2.8-0.2-4.2c-0.1-1.4,0-2.8,0.2-4.1
						c0.4-2.7,1.2-5.2,2.4-7.4c1.2-2.2,2.7-4,4.4-5.5c1.7-1.4,3.6-2.4,5.3-3c3.6-1.3,6.7-1.1,8.8-0.7c2.1,0.4,3.1,1,3.1,1
						c0,0-0.1,0-0.2-0.1c-0.2-0.1-0.3-0.1-0.6-0.2c-0.5-0.2-1.3-0.4-2.3-0.6c-2-0.3-5.1-0.4-8.6,0.9c-1.7,0.6-3.5,1.6-5.2,3
						c-1.7,1.4-3.2,3.2-4.3,5.4c-1.2,2.2-2,4.6-2.3,7.3c-0.2,1.3-0.2,2.7-0.2,4c0.1,1.4,0.3,2.8,0.2,4.2c-0.1,1.4-0.7,2.9-1.9,3.8
						c-0.6,0.4-1.3,0.7-2,0.7c-0.7,0.1-1.4,0.1-2.1,0.1c-1.3,0-2.7,0-3.7,0.8c-1,0.7-1.7,1.8-2.1,2.9c-0.4,1.1-0.6,2.3-0.7,3.5
						c-0.2,1.2-0.3,2.3-0.3,3.4c-0.1,2.2,0.3,4.2,1.4,5.7c1.1,1.5,2.6,2.4,3.9,2.9c1.4,0.5,2.6,0.8,3.7,0.9c1,0.1,1.8,0.2,2.4,0.3
						c0.3,0,0.5,0,0.6,0.1C228.8,204.5,228.9,204.5,228.9,204.5z"/>
				</g>
			</g>
			<g>
				<g>
					<path class="st1" d="M253.9,166.1c0,0-0.2,0.3-0.6,0.9c-0.2,0.3-0.5,0.6-0.8,1c-0.3,0.4-0.6,0.8-1,1.4c-0.7,1-1.4,2.3-2.2,3.8
						c-0.7,1.5-1.5,3.1-2.1,4.9c-0.6,1.8-1,3.5-1.3,5.2c-0.3,1.6-0.5,3.1-0.5,4.3c-0.1,0.6-0.1,1.2-0.1,1.7c0,0.5,0,0.9,0,1.3
						c0,0.7,0,1.1,0,1.1c0,0-0.1-0.4-0.1-1.1c0-0.3-0.1-0.8-0.1-1.3c0-0.5,0-1.1,0-1.7c0-1.3,0.2-2.7,0.5-4.4
						c0.3-1.6,0.7-3.4,1.3-5.2c0.6-1.8,1.4-3.5,2.1-4.9c0.8-1.5,1.6-2.7,2.3-3.7c0.3-0.5,0.7-1,1-1.3c0.3-0.4,0.6-0.7,0.8-1
						C253.6,166.3,253.9,166,253.9,166.1z"/>
				</g>
			</g>
			<g>
				<g>
					<path class="st1" d="M261.8,162.3c0,0-0.3,0.3-0.9,0.9c-0.3,0.3-0.7,0.6-1.1,1c-0.4,0.4-0.9,0.9-1.4,1.4
						c-1.1,1.1-2.2,2.4-3.4,4c-1.2,1.6-2.4,3.4-3.6,5.4c-1.1,2-2,4-2.8,5.8c-0.7,1.8-1.3,3.6-1.6,5c-0.2,0.7-0.3,1.4-0.5,2
						c-0.1,0.6-0.2,1.1-0.3,1.5c-0.2,0.8-0.3,1.3-0.3,1.3c0,0,0-0.5,0.1-1.3c0.1-0.4,0.1-0.9,0.2-1.5c0.1-0.6,0.2-1.3,0.4-2
						c0.3-1.5,0.9-3.2,1.6-5.1c0.7-1.9,1.6-3.9,2.8-5.9c1.1-2,2.4-3.8,3.6-5.4c1.2-1.6,2.4-2.9,3.5-4c0.5-0.5,1-1,1.5-1.4
						c0.4-0.4,0.8-0.7,1.2-1C261.4,162.6,261.7,162.3,261.8,162.3z"/>
				</g>
			</g>
			<g>
				<g>
					<path class="st0" d="M234.2,208.7c0,0-0.1,0.1-0.2,0.2c-0.1,0.1-0.4,0.2-0.7,0.4c-0.6,0.3-1.6,0.6-2.9,0.6
						c-1.3,0-2.9-0.3-4.4-1.4c-1.5-1-2.8-2.9-3.3-5.2c-0.2-1.1-0.3-2.4-0.1-3.6c0.2-1.3,0.6-2.5,1.3-3.7c0.7-1.2,1.6-2.3,2.7-3.3
						c1.1-1,2.4-1.7,3.7-2.5c1.3-0.7,2.7-1.5,3.7-2.6c1.1-1.1,1.8-2.6,2.2-4.1c0.4-1.6,0.6-3.2,0.7-4.9c0.1-1.7,0.1-3.4,0.3-5.2
						c0.2-1.7,0.5-3.5,1.2-5.1c0.7-1.6,1.8-3,3.2-3.9c1.4-0.9,3-1.5,4.5-1.9c1.5-0.4,3-0.8,4.5-1.2c1.4-0.4,2.8-1,3.9-1.8
						c0.3-0.2,0.6-0.4,0.8-0.7c0.2-0.2,0.5-0.5,0.7-0.7c0.4-0.5,0.8-1.1,1.1-1.7c0.7-1.1,1.3-2.3,2.2-3.3c0.9-0.9,1.9-1.6,3-2.1
						c2.1-0.9,4.4-0.9,6.1-0.4c1.8,0.6,3,1.6,3.9,2.5c0.9,1,1.3,1.9,1.6,2.5c0.3,0.6,0.3,1,0.3,1c0,0-0.1-0.3-0.4-0.9
						c-0.3-0.6-0.7-1.5-1.6-2.4c-0.9-0.9-2.1-1.9-3.9-2.4c-1.7-0.5-3.9-0.5-5.9,0.4c-1,0.5-2,1.1-2.8,2c-0.8,0.9-1.4,2-2.1,3.2
						c-0.3,0.6-0.7,1.2-1.1,1.7c-0.2,0.3-0.5,0.5-0.7,0.8c-0.2,0.3-0.5,0.5-0.8,0.7c-1.2,0.9-2.6,1.4-4,1.9c-1.5,0.5-3,0.8-4.5,1.2
						c-1.5,0.4-3,1-4.4,1.9c-1.3,0.9-2.4,2.2-3,3.7c-0.7,1.5-1,3.2-1.1,4.9c-0.2,1.7-0.2,3.4-0.3,5.1c-0.1,1.7-0.3,3.4-0.7,5
						c-0.4,1.6-1.2,3.1-2.3,4.3c-1.1,1.2-2.5,2-3.8,2.7c-1.3,0.7-2.6,1.5-3.6,2.4c-1.1,0.9-1.9,2-2.6,3.2c-0.7,1.1-1.1,2.4-1.3,3.6
						c-0.2,1.2-0.1,2.4,0.1,3.5c0.5,2.2,1.7,4,3.1,5c1.5,1,3,1.4,4.3,1.4c1.3,0,2.2-0.3,2.8-0.5
						C233.9,208.9,234.2,208.6,234.2,208.7z"/>
				</g>
			</g>
		</g>
		<g>
			<g>
				<g>
					<g>
						<g>
							<g>
								<g>
									<g>
										<g>
											<g>
												<g>
													<g>
														<g>
															<g>
																<g>
																	<g>
																		<g>
																			<path class="st1" d="M288,191.4c0,1-0.8,1.9-1.9,2c-1.1,0.1-2-0.7-2-1.7c0-1,0.8-1.9,1.9-2
																				C287,189.6,287.9,190.3,288,191.4z"/>
																		</g>
																	</g>
																</g>
															</g>
														</g>
													</g>
												</g>
											</g>
										</g>
									</g>
								</g>
							</g>
						</g>
					</g>
				</g>
			</g>
		</g>
		<g>
			<g>
				<g>
					<g>
						<g>
							<g>
								<g>
									<g>
										<g>
											<g>
												<g>
													<g>
														<g>
															<g>
																<g>
																	<g>
																		<g>
																			<g>
																				<path class="st1" d="M289.6,185.4c-0.2,0.3-1.7-0.8-3.8-0.8c-2.1,0-3.6,1.1-3.8,0.8c-0.1-0.1,0.1-0.6,0.8-1.1
																					c0.7-0.5,1.8-1,3.1-1c1.3,0,2.4,0.5,3,1C289.5,184.9,289.7,185.3,289.6,185.4z"/>
																			</g>
																		</g>
																	</g>
																</g>
															</g>
														</g>
													</g>
												</g>
											</g>
										</g>
									</g>
								</g>
							</g>
						</g>
					</g>
				</g>
			</g>
		</g>
		<g>
			<g>
				<g>
					<g>
						<g>
							<g>
								<g>
									<g>
										<g>
											<g>
												<g>
													<g>
														<g>
															<g>
																<g>
																	<g>
																		<g>
																			<path class="st1" d="M269.8,191.4c0,1-0.8,1.9-1.9,2c-1.1,0.1-2-0.7-2-1.7c0-1,0.8-1.9,1.9-2
																				C268.9,189.6,269.8,190.3,269.8,191.4z"/>
																		</g>
																	</g>
																</g>
															</g>
														</g>
													</g>
												</g>
											</g>
										</g>
									</g>
								</g>
							</g>
						</g>
					</g>
				</g>
			</g>
		</g>
		<g>
			<g>
				<g>
					<g>
						<g>
							<g>
								<g>
									<g>
										<g>
											<g>
												<g>
													<g>
														<g>
															<g>
																<g>
																	<g>
																		<g>
																			<g>
																				<path class="st1" d="M269.8,185.4c-0.2,0.3-1.7-0.8-3.8-0.8c-2.1,0-3.6,1.1-3.8,0.8c-0.1-0.1,0.1-0.6,0.8-1.1
																					c0.7-0.5,1.8-1,3.1-1c1.3,0,2.4,0.5,3,1C269.7,184.9,269.9,185.3,269.8,185.4z"/>
																			</g>
																		</g>
																	</g>
																</g>
															</g>
														</g>
													</g>
												</g>
											</g>
										</g>
									</g>
								</g>
							</g>
						</g>
					</g>
				</g>
			</g>
		</g>
	</g>
	<g>
		<g>
			<g>
				<g>
					<path class="st7" d="M305.3,250.9c-9-11-16.8-12.5-16.8-12.5l0.1,39.2l28.8,36.4l11.7-30C329,284,311.4,258.3,305.3,250.9z"/>
				</g>
			</g>
		</g>
		<g>
			<path class="st7" d="M275.7,235.2l12.9,3.1c0,0,6.7,38.6,4.2,48.6c-2.1,8.5-8.7,47.7-8.7,47.7h-79.6l26.7-76.6
				c0,0,0.2-16.8-4-24.6c2.5-0.6,10.9-2.1,18.2-3.5c0,0,4.8,6,16.2,7.8C273.1,239.5,275.7,235.2,275.7,235.2z"/>
		</g>
		<g>
			<path class="st0" d="M291.5,267.6h-50c-4.4,25.6-15,35.4-33.8,50.2l-3.1,17h79.6l4.6-26.7l-0.3-9.8L291.5,267.6z"/>
		</g>
		<g>
			<g>
				<g>
					<path class="st7" d="M229.2,233.2c0,0-19,1.5-25.8,32.7c-3.1,14.1-7,30.6-8.1,41.7c-0.8,8,2.1,19.2,9.8,21l14.1,1.8
						c6.3,0.1,10.6-5,11.9-10.5l2.2-8.7c1.5-10.6-6.6-11.5-11.1-11.4l10-39.6L234,241L229.2,233.2z"/>
				</g>
			</g>
		</g>
		<g>
			<g>
				<g>
					<g>
						<path class="st1" d="M294.1,259.7c0,0,0,0.1,0.1,0.4c0,0.3,0.1,0.7,0.2,1.3c0,0.3,0.1,0.6,0.1,0.9c0,0.3,0.1,0.7,0.1,1.1
							c0.1,0.8,0.2,1.7,0.2,2.7c0.1,2,0.1,4.3,0,6.9c-0.1,2.6-0.4,5.5-0.8,8.4c-0.4,3-1,5.8-1.5,8.3c-0.5,2.5-1.1,4.8-1.6,6.7
							c-0.5,1.9-0.9,3.5-1.2,4.5c-0.1,0.5-0.3,0.9-0.3,1.2c-0.1,0.3-0.1,0.4-0.1,0.4c0,0,0-0.2,0.1-0.4c0.1-0.3,0.2-0.7,0.3-1.2
							c0.3-1.1,0.6-2.6,1.1-4.5c0.4-1.9,1-4.2,1.5-6.7c0.5-2.5,1.1-5.4,1.5-8.3c0.4-3,0.7-5.8,0.9-8.4c0.1-2.6,0.1-4.9,0-6.9
							c0-1-0.1-1.9-0.2-2.6c0-0.4-0.1-0.8-0.1-1.1c0-0.3-0.1-0.6-0.1-0.9c-0.1-0.5-0.1-0.9-0.1-1.3
							C294.1,259.8,294.1,259.7,294.1,259.7z"/>
					</g>
				</g>
			</g>
		</g>
		<g>
			<g>
				<g>
					<g>
						<path class="st1" d="M207.1,310.7c0,0,0-0.3,0.2-0.8c0.1-0.5,0.4-1.2,0.7-2c0.7-1.7,2.2-3.9,4.5-5.5c2.3-1.7,4.8-2.4,6.7-2.6
							c0.9-0.1,1.7-0.1,2.2-0.1c0.5,0,0.8,0.1,0.8,0.1c0,0.1-1.1-0.1-2.9,0.2c-1.8,0.2-4.3,1-6.5,2.6c-2.2,1.6-3.7,3.8-4.5,5.4
							C207.4,309.6,207.1,310.7,207.1,310.7z"/>
					</g>
				</g>
			</g>
		</g>
		<g>
			<g>
				<g>
					<g>
						<path class="st1" d="M211.5,295.2c0,0,0.2,0,0.5,0c0.3,0,0.7,0,1.3,0.1c1.1,0.1,2.5,0.4,4,1c1.5,0.6,2.7,1.4,3.6,2.1
							c0.4,0.3,0.7,0.6,0.9,0.8c0.2,0.2,0.3,0.3,0.3,0.4c0,0-0.5-0.4-1.4-1c-0.8-0.6-2.1-1.4-3.5-2c-1.5-0.6-2.9-0.9-3.9-1.1
							C212.1,295.2,211.5,295.2,211.5,295.2z"/>
					</g>
				</g>
			</g>
		</g>
		<g>
			<g>
				<g>
					<g>
						<path class="st1" d="M231.2,254.8c0,0,0-0.3,0-0.8c0-0.5,0-1.3-0.1-2.3c-0.1-1.9-0.5-4.5-1.3-7.3c-0.8-2.8-1.9-5.2-2.7-6.9
							c-0.4-0.8-0.8-1.5-1.1-2c-0.3-0.5-0.4-0.7-0.4-0.7c0,0,0.2,0.2,0.5,0.7c0.3,0.4,0.7,1.1,1.2,1.9c0.9,1.7,2,4.1,2.8,6.9
							c0.8,2.8,1.1,5.5,1.2,7.4c0,1,0,1.7,0,2.3C231.2,254.5,231.2,254.8,231.2,254.8z"/>
					</g>
				</g>
			</g>
		</g>
		<g class="st8">
			<g>
				<g>
					<g>
						<path d="M293.3,285.8c4.8-8.2,5-18.9,0.7-27.4c1.3,9.1,1.2,18.4-0.9,27.4"/>
					</g>
				</g>
			</g>
		</g>
		<g>
			<g>
				<g>
					<g>
						<path class="st1" d="M227.5,326.9c0,0-0.3,0.4-1,1c-0.7,0.6-1.9,1.2-3.5,1.7c-1.6,0.4-3.6,0.6-5.7,0.5
							c-2.2-0.2-4.6-0.4-7.1-0.8c-2.5-0.4-4.9-0.8-6.9-1.6c-1-0.4-1.8-1-2.5-1.7c-0.7-0.7-1.3-1.3-1.8-2c-1-1.3-1.6-2.5-1.9-3.4
							c-0.2-0.4-0.3-0.8-0.4-1c-0.1-0.2-0.1-0.3-0.2-0.3c0,0,0,0.1,0.1,0.4c0.1,0.2,0.2,0.6,0.4,1c0.3,0.9,0.9,2.1,1.9,3.5
							c0.5,0.7,1.1,1.4,1.8,2.1c0.7,0.7,1.6,1.3,2.6,1.8c2.1,0.8,4.5,1.2,7,1.6c2.5,0.4,4.9,0.6,7.1,0.8c2.2,0.1,4.2-0.1,5.8-0.6
							c1.6-0.5,2.8-1.2,3.5-1.8c0.3-0.3,0.6-0.6,0.7-0.8C227.4,327,227.5,326.9,227.5,326.9z"/>
					</g>
				</g>
			</g>
		</g>
		<g>
			<g>
				<g>
					<g>
						<path class="st1" d="M230.6,264.8c-0.1,0-2.1,7.8-4.5,17.4c-2.4,9.6-4.3,17.4-4.2,17.5c0.1,0,2.1-7.8,4.5-17.4
							C228.9,272.6,230.7,264.8,230.6,264.8z"/>
					</g>
				</g>
			</g>
		</g>
		<g>
			<g>
				<g>
					<g>
						<path class="st1" d="M233.1,308.7c0,0,0.1-0.2,0.1-0.6c0-0.4,0.1-1,0-1.8c0-0.7-0.3-1.7-0.9-2.5c-0.3-0.4-0.6-0.8-1-1.2
							c-0.4-0.4-0.9-0.7-1.4-1c-2-1.1-4.1-1.6-5.5-1.8c-0.7-0.1-1.3-0.1-1.8-0.2c-0.4,0-0.6,0-0.6,0c0,0.1,0.9,0.1,2.4,0.3
							c1.4,0.3,3.5,0.8,5.4,1.8c0.5,0.3,0.9,0.6,1.3,1c0.4,0.4,0.7,0.8,0.9,1.2c0.5,0.8,0.8,1.6,0.9,2.4c0.1,0.7,0.1,1.3,0.1,1.7
							C233,308.4,233,308.7,233.1,308.7z"/>
					</g>
				</g>
			</g>
		</g>
		<g>
			<g>
				<g>
					<g>
						<g>
							<g>
								<g>
									<path class="st4" d="M271.5,307.6C271.5,307.6,271.5,307.6,271.5,307.6C271.5,307.6,271.5,307.6,271.5,307.6z"/>
								</g>
							</g>
						</g>
					</g>
				</g>
				<g>
					<g>
						<g>
							<g>
								<g>
									<path class="st4" d="M271.3,307.7C271.3,307.7,271.2,307.7,271.3,307.7C271.2,307.7,271.3,307.7,271.3,307.7z"/>
								</g>
							</g>
						</g>
					</g>
				</g>
				<g>
					<g>
						<g>
							<g>
								<g>
									<path class="st4" d="M271.5,307.6c-0.1,0-0.1,0.1-0.2,0.1C271.4,307.7,271.4,307.6,271.5,307.6z"/>
								</g>
							</g>
						</g>
					</g>
				</g>
				<g>
					<g>
						<g>
							<g>
								<g>
									<path class="st4" d="M271.6,307.5C271.6,307.6,271.5,307.6,271.6,307.5C271.6,307.6,271.6,307.5,271.6,307.5z"/>
								</g>
							</g>
						</g>
					</g>
				</g>
				<g>
					<g>
						<g>
							<g>
								<g>
									<path class="st4" d="M289.4,323.9c-1.5-2.9-13.5-10.5-13.5-10.5l3.2-0.7l3.6,1.5c0,0,0.2,1.5,1.5,3.3
										c1.3,1.9,3.5-0.1,3.5-0.1l-1.5-7.2l-7.1-4.2c0,0-6.6,1-7.7,1.5l-2.8,2.6c-1.2,1-4.8,4.8-5.8,4.9c-1,0.1-31.8-6.8-31.8-6.8
										l0,0c-4.2,3.3-6.4,10-7.1,14.8c0,0-0.8,2.4,0.1,3.6l37.8,3l8,2.2c0,0,4.4,1.8,6.6,2.3c2.7,0.6,4.5-0.3,4.5-1.8
										c0.1-1.5-2-1.6-2-1.6s-3.4-1.2-5.1-2.3c-1.8-1-2.9-3.2-2.9-3.2l2.9,0.3c0,0,6.1,4.2,8.4,5.4c2.3,1.2,2.7-1,2.9-1.7
										c0.2-0.7-6.8-7.5-6.8-7.5s6.7,4.1,7.9,5.1c1.2,1,3,1.3,3.4,0.7C289.9,326.9,291,326.8,289.4,323.9z"/>
								</g>
							</g>
						</g>
					</g>
				</g>
				<g>
					<g>
						<g>
							<g>
								<g>
									<path class="st4" d="M271.2,307.7C271.2,307.7,271.2,307.7,271.2,307.7C271.2,307.7,271.2,307.7,271.2,307.7z"/>
								</g>
							</g>
						</g>
					</g>
				</g>
				<g>
					<g>
						<g>
							<g>
								<g>
									<path class="st4" d="M271.1,307.8C271.1,307.8,271.1,307.8,271.1,307.8L271.1,307.8z"/>
								</g>
							</g>
						</g>
					</g>
				</g>
				<g>
					<g>
						<g>
							<g>
								<g>
									<path class="st4" d="M271.2,307.8C271.1,307.8,271.1,307.8,271.2,307.8C271.1,307.8,271.1,307.8,271.2,307.8z"/>
								</g>
							</g>
						</g>
					</g>
				</g>
			</g>
			<g>
				<g>
					<g>
						<g>
							<g>
								<g>
									<path class="st5" d="M256.6,324.6c0,0,0-0.2,0-0.5c0-0.2,0-0.3,0-0.5c0-0.2,0.1-0.5,0.1-0.7c0.2-1.1,0.9-2.4,1.9-3.7
										c1-1.3,2.1-2.3,2.9-3c0.8-0.7,1.4-1.1,1.4-1.1c0,0-0.5,0.5-1.2,1.2c-0.8,0.7-1.8,1.8-2.8,3.1c-1,1.3-1.7,2.6-2,3.6
										C256.6,323.9,256.7,324.6,256.6,324.6z"/>
								</g>
							</g>
						</g>
					</g>
				</g>
			</g>
			<g>
				<g>
					<g>
						<g>
							<g>
								<g>
									<path class="st5" d="M275.7,313.2c0,0.1-0.9,0.2-2-0.2c-1.1-0.4-1.8-1-1.7-1.1c0.1-0.1,0.8,0.5,1.8,0.8
										C274.8,313.1,275.7,313.1,275.7,313.2z"/>
								</g>
							</g>
						</g>
					</g>
				</g>
			</g>
			<g>
				<g>
					<g>
						<g>
							<g>
								<g>
									<path class="st5" d="M277.7,321.1c0,0.1-1.4-0.4-3-1.1c-1.6-0.7-3-1.3-2.9-1.4c0-0.1,1.4,0.4,3,1.1
										C276.4,320.4,277.7,321.1,277.7,321.1z"/>
								</g>
							</g>
						</g>
					</g>
				</g>
			</g>
			<g>
				<g>
					<g>
						<g>
							<g>
								<g>
									<path class="st5" d="M271.3,325.2c0,0.1-0.7-0.2-1.6-0.6c-0.8-0.3-1.5-0.6-1.5-0.7c0-0.1,0.8,0.1,1.6,0.4
										C270.7,324.7,271.3,325.1,271.3,325.2z"/>
								</g>
							</g>
						</g>
					</g>
				</g>
			</g>
			<g>
				<g>
					<g>
						<g>
							<g>
								<g>
									<path class="st5" d="M276.7,321.7c0,0.1-0.7,0.3-1.2,1c-0.5,0.7-0.6,1.4-0.7,1.4c0,0-0.1-0.2,0-0.5c0-0.3,0.2-0.7,0.5-1.1
										c0.3-0.4,0.6-0.6,0.9-0.8C276.5,321.6,276.7,321.6,276.7,321.7z"/>
								</g>
							</g>
						</g>
					</g>
				</g>
			</g>
			<g>
				<g>
					<g>
						<g>
							<g>
								<g>
									<path class="st5" d="M279.5,317.2c0,0.1-0.5,0.4-0.8,1c-0.4,0.6-0.3,1.2-0.4,1.2c-0.1,0-0.2-0.6,0.2-1.3
										C278.8,317.4,279.5,317.2,279.5,317.2z"/>
								</g>
							</g>
						</g>
					</g>
				</g>
			</g>
			<g>
				<g>
					<g>
						<g>
							<g>
								<g>
									<path class="st5" d="M278.6,309.4c0,0-0.1-0.1-0.2-0.4c-0.1-0.3-0.1-0.6,0-1.1c0.1-0.4,0.3-0.7,0.5-0.9
										c0.2-0.2,0.3-0.3,0.4-0.2c0.1,0.1-0.4,0.5-0.6,1.2C278.4,308.7,278.6,309.3,278.6,309.4z"/>
								</g>
							</g>
						</g>
					</g>
				</g>
			</g>
			<g>
				<g>
					<g>
						<g>
							<g>
								<g>
									<path class="st1" d="M223.8,327.7c0,0,0-0.3,0.1-0.9c0-0.3,0-0.6,0-1c0-0.4,0-0.8,0.1-1.3c0.2-2,0.6-4.7,1.6-7.6
										c0.5-1.4,1.1-2.7,1.8-3.9c0.3-0.6,0.7-1.1,1-1.6c0.2-0.2,0.3-0.5,0.5-0.7c0.2-0.2,0.3-0.4,0.5-0.6c1.3-1.5,2.2-2.3,2.2-2.4
										c0,0-0.3,0.2-0.7,0.5c-0.2,0.2-0.5,0.4-0.7,0.7c-0.3,0.3-0.6,0.6-0.9,1c-0.2,0.2-0.3,0.4-0.5,0.6c-0.2,0.2-0.3,0.5-0.5,0.7
										c-0.4,0.5-0.7,1-1,1.6c-0.7,1.2-1.3,2.5-1.8,3.9c-1,2.9-1.5,5.7-1.6,7.7c0,0.5,0,1,0,1.4c0,0.4,0,0.7,0,1
										C223.8,327.4,223.8,327.7,223.8,327.7z"/>
								</g>
							</g>
						</g>
					</g>
				</g>
			</g>
		</g>
		<g class="st8">
			<path d="M250,272.9v1l-5.7,0.4l-2.9-23.2c0,0-1.2-7.8-2-10.6c-0.8-2.8-4.2-8.5-4.2-8.5l2.5-0.5l4.9,8L250,272.9z"/>
		</g>
		<g>
			<g>
				<path class="st0" d="M250.7,272.8c0,0-2.5-21.5-5-30.1c-2.4-8.6-6.2-11.7-6.2-11.7l-3.7,0.7c0,0,3.7,4.5,5.1,12.4
					c1.4,7.9,4.1,28.9,4.1,28.9L250.7,272.8z"/>
			</g>
			<g>
				<g>
					<path class="st1" d="M250.7,272.8c0,0-0.1,0-0.3,0c-0.3,0-0.6,0-1.1,0.1c-1,0.1-2.4,0.1-4.2,0.2l-0.1,0l0-0.1
						c-0.5-3.9-1.4-9.8-2.4-17c-0.5-3.6-1.1-7.6-1.8-11.7c-0.4-2.1-0.9-4.2-1.7-6.2c-0.8-2.1-1.8-4.1-3.2-6l-0.2-0.3l-0.2-0.3
						l0.3-0.1c1.3-0.2,2.5-0.5,3.7-0.7l0.1,0l0.1,0.1c1.2,1.1,2.1,2.3,2.8,3.6c0.8,1.3,1.4,2.6,2,4c1.1,2.7,1.8,5.4,2.3,8
						c1.1,5.2,1.7,9.8,2.3,13.7c0.6,3.9,1,7.1,1.2,9.2c0.1,1.1,0.2,1.9,0.3,2.5c0,0.3,0,0.5,0.1,0.7
						C250.7,272.8,250.7,272.8,250.7,272.8c0,0,0-0.1,0-0.2c0-0.2-0.1-0.4-0.1-0.6c-0.1-0.6-0.2-1.4-0.3-2.5
						c-0.3-2.2-0.7-5.3-1.3-9.2c-0.6-3.9-1.3-8.6-2.4-13.7c-0.5-2.6-1.2-5.2-2.3-7.9c-0.5-1.3-1.2-2.6-1.9-3.9
						c-0.8-1.3-1.7-2.5-2.7-3.5l0.2,0c-1.2,0.2-2.4,0.5-3.7,0.7l0.1-0.3l0.2,0.3c1.4,1.9,2.4,4,3.2,6c0.8,2.1,1.4,4.2,1.7,6.3
						c0.7,4.2,1.3,8.1,1.8,11.7c1,7.2,1.7,13.2,2.2,17l-0.1-0.1c1.8-0.1,3.2-0.1,4.1-0.1c0.5,0,0.8,0,1.1,0
						C250.6,272.8,250.7,272.8,250.7,272.8z"/>
				</g>
			</g>
		</g>
		<g>
			<g>
				<path class="st0" d="M288.4,238.3c0,0,0.9,23.5-2.1,35.6l-5.6-0.2c0,0,4.2-29.2,3.6-36.5C284.4,237.2,286.7,237.2,288.4,238.3z"
					/>
			</g>
			<g>
				<g>
					<path class="st1" d="M288.4,238.3c0,0-0.3-0.2-1-0.5c-0.7-0.3-1.7-0.6-3.1-0.6l0.1-0.1c0.2,3.3-0.2,8.4-0.8,14.7
						c-0.7,6.3-1.6,13.8-2.7,21.8l-0.2-0.2c0,0,0.1,0,0.1,0c1.9,0.1,3.7,0.1,5.5,0.2l-0.2,0.2c1.1-4.9,1.5-9.6,1.8-13.9
						c0.3-4.3,0.4-8.1,0.4-11.3c0-3.2,0-5.8,0-7.5c0-0.9,0-1.5,0-2C288.4,238.6,288.4,238.4,288.4,238.3c0,0,0,0.2,0.1,0.7
						c0,0.5,0,1.2,0.1,2c0.1,1.8,0.1,4.3,0.1,7.5c0,3.2-0.1,7-0.3,11.3c-0.3,4.3-0.7,9-1.8,14l0,0.2l-0.2,0
						c-1.8-0.1-3.6-0.1-5.5-0.2c0,0-0.1,0-0.1,0l-0.2,0l0-0.2c1.1-8,2.1-15.5,2.8-21.8c0.7-6.3,1.1-11.4,1-14.7l0-0.1l0.1,0
						c1.4,0.1,2.5,0.4,3.1,0.7c0.3,0.2,0.6,0.3,0.7,0.4C288.4,238.3,288.5,238.3,288.4,238.3z"/>
				</g>
			</g>
		</g>
		<g>
			<path class="st6" d="M282.6,270.5c0,0.9,0.8,1.7,1.7,1.7s1.7-0.8,1.7-1.7c0-0.9-0.8-1.7-1.7-1.7S282.6,269.6,282.6,270.5z"/>
			<path class="st1" d="M284.3,272.2c-0.9,0-1.7-0.8-1.7-1.7c0-0.9,0.8-1.7,1.7-1.7c0.9,0,1.7,0.8,1.7,1.7
				C286,271.4,285.2,272.2,284.3,272.2z M284.3,268.8c-0.9,0-1.7,0.7-1.7,1.7c0,0.9,0.7,1.7,1.7,1.7c0.9,0,1.7-0.7,1.7-1.7
				C285.9,269.6,285.2,268.8,284.3,268.8z"/>
		</g>
		<g>
			<circle class="st6" cx="247.5" cy="269.9" r="1.7"/>
			<path class="st1" d="M247.5,271.6c-0.9,0-1.7-0.8-1.7-1.7c0-0.9,0.8-1.7,1.7-1.7c0.9,0,1.7,0.8,1.7,1.7
				C249.2,270.9,248.5,271.6,247.5,271.6z M247.5,268.3c-0.9,0-1.7,0.7-1.7,1.7s0.7,1.7,1.7,1.7c0.9,0,1.7-0.7,1.7-1.7
				S248.5,268.3,247.5,268.3z"/>
		</g>
		<g>
			<g>
				<path class="st1" d="M281.1,287.7c0,0,0,0.1,0,0.3c0,0.2,0,0.4,0,0.8c0,0.7,0,1.6-0.1,2.9c-0.1,1.3-0.3,2.8-0.8,4.5
					c-0.5,1.7-1.5,3.6-3,5.3c-2.8,3.6-7.9,6.3-13.9,7.1c-1.5,0.2-3,0.2-4.6,0.1c-1.6-0.1-3.2-0.5-4.6-1.2c-3-1.4-5.5-4-7.1-7
					c-1.6-3.1-2.3-6.5-2.4-9.7c0-0.8,0-1.6,0-2.4c0-0.4,0.1-0.8,0.3-1.2c0.2-0.4,0.5-0.7,0.9-0.9c0.8-0.3,1.6-0.2,2.4-0.2
					c0.8,0,1.5,0.1,2.3,0.1c5.9,0.2,11.3,0.5,15.8,0.6c4.5,0.2,8.1,0.4,10.7,0.5c1.2,0.1,2.2,0.1,2.9,0.1c0.3,0,0.6,0,0.8,0
					c0.2,0,0.3,0,0.3,0c0,0-0.1,0-0.3,0c-0.2,0-0.4,0-0.8,0c-0.7,0-1.7,0-2.9-0.1c-2.5-0.1-6.2-0.2-10.7-0.3
					c-4.5-0.2-9.9-0.4-15.8-0.6c-0.7,0-1.5-0.1-2.3-0.1c-0.8,0-1.6-0.1-2.2,0.1c-0.7,0.3-0.9,1-1,1.8c-0.1,0.8,0,1.6,0,2.4
					c0.1,3.2,0.8,6.5,2.4,9.6c1.6,3,4,5.5,6.9,6.9c1.4,0.7,3,1.1,4.5,1.2c1.5,0.1,3.1,0.1,4.5,0c5.9-0.7,10.9-3.4,13.7-6.9
					c1.4-1.7,2.5-3.5,3-5.2c0.5-1.7,0.7-3.2,0.8-4.5c0.1-1.3,0.2-2.2,0.2-2.9c0-0.3,0-0.6,0-0.8
					C281.1,287.8,281.1,287.7,281.1,287.7z"/>
			</g>
		</g>
		<g class="st8">
			<g>
				<path d="M237.5,309.6c0.4-2.9-0.4-5.8-2.3-8c-1.8-2.3-4.7-3.7-7.6-3.9c-0.3-9.8,0.4-19.7,2.1-29.4l-7.8,31.2
					c0,0,10.9,0.2,11.1,9.2L237.5,309.6z"/>
			</g>
		</g>
	</g>
	<g class="st8">
		<g>
			<path d="M245.8,190.8c0.8-6.4,3.1-12.6,6.5-18c0.4-0.6,0.8-1.4,0.4-2c-0.3-0.5-1.1-0.6-1.6-0.4c-0.6,0.2-0.9,0.7-1.3,1.2
				c-3.8,5.4-5.3,12.4-4,18.9"/>
		</g>
	</g>
	<g>
		<g>
			<g>
				<g>
					<g>
						<g>
							<g>
								<path class="st6" d="M380.6,280.7l-11,54.2h-76.5h-19.3c-1.1,0-1.9-0.9-1.9-1.9l0,0c0-1.1,0.9-1.9,1.9-1.9h19.3l10.2-50.4
									c0.2-1,1-1.7,2-1.7l73.2-0.8C379.9,278.2,380.9,279.4,380.6,280.7z"/>
							</g>
						</g>
					</g>
				</g>
			</g>
			<g>
				<g>
					<g>
						<g>
							<g>
								<g>
									<path class="st1" d="M380.6,280.7c0,0,0-0.1,0-0.2c0-0.1,0-0.3,0-0.5c0-0.4-0.3-1.1-1-1.6c-0.2-0.1-0.4-0.2-0.6-0.3
										c-0.2-0.1-0.5,0-0.8,0c-0.5,0-1.1,0-1.7,0c-1.2,0-2.7,0-4.3,0c-6.5,0.1-15.9,0.2-27.7,0.3c-5.9,0.1-12.3,0.1-19.3,0.2
										c-3.5,0-7.1,0.1-10.8,0.1c-1.9,0-3.8,0-5.7,0.1c-1,0-1.9,0-2.9,0c-0.2,0-0.5,0-0.7,0c-0.3,0-0.5,0.1-0.7,0.2
										c-0.5,0.2-0.8,0.6-1.1,1.1c-0.1,0.2-0.2,0.5-0.2,0.7l-0.1,0.7c-0.1,0.5-0.2,1-0.3,1.5c-0.2,1-0.4,2-0.6,3
										c-0.4,2-0.8,4-1.2,6c-0.8,4.1-1.7,8.2-2.5,12.5c-1.7,8.5-3.5,17.3-5.4,26.4l0.1-0.1c-3.6,0-7.3,0-11.1,0
										c-1.9,0-3.8,0-5.7,0l-1.4,0h-0.7c-0.2,0-0.5,0-0.7,0c-0.5,0.1-1,0.4-1.3,0.8c-0.3,0.4-0.4,1-0.3,1.5c0.1,0.6,0.5,1.2,1,1.5
										c0.3,0.1,0.6,0.2,0.9,0.2l0.9,0c1.2,0,2.3,0,3.5,0c2.3,0,4.6,0,6.9,0c4.6,0,9.1,0,13.6,0c8.9,0,17.6,0,25.9,0
										c16.6,0,31.8,0,45,0l0.1,0l0-0.1c3.4-16.7,6.1-30.2,8-39.6c0.9-4.7,1.7-8.3,2.2-10.8c0.2-1.2,0.4-2.2,0.6-2.8
										C380.5,281,380.6,280.7,380.6,280.7s-0.1,0.3-0.2,1c-0.1,0.6-0.3,1.6-0.6,2.8c-0.5,2.5-1.3,6.1-2.2,10.8
										c-1.9,9.4-4.7,22.9-8.1,39.6l0.1-0.1c-13.1,0-28.3,0-45,0c-8.3,0-17,0-25.9,0c-4.5,0-9,0-13.6,0c-2.3,0-4.6,0-6.9,0
										c-1.2,0-2.3,0-3.5,0l-0.9,0c-0.3,0-0.5-0.1-0.8-0.2c-0.5-0.3-0.8-0.8-0.9-1.3c-0.1-0.4,0-0.9,0.3-1.3
										c0.3-0.4,0.7-0.6,1.1-0.7c0.2,0,0.4,0,0.7,0l0.7,0h1.4c1.9,0,3.8,0,5.7,0c3.8,0,7.5,0,11.1,0h0.1l0-0.1
										c1.8-9.1,3.6-17.9,5.4-26.4c0.9-4.2,1.7-8.4,2.5-12.5c0.4-2,0.8-4,1.2-6c0.2-1,0.4-2,0.6-3c0.1-0.5,0.2-1,0.3-1.5l0.1-0.7
										c0.1-0.2,0.1-0.5,0.2-0.7c0.2-0.4,0.5-0.8,0.9-1c0.2-0.1,0.4-0.2,0.7-0.2c0.2,0,0.5,0,0.7,0c1,0,1.9,0,2.9,0
										c1.9,0,3.8,0,5.7-0.1c3.7,0,7.3-0.1,10.8-0.1c7-0.1,13.4-0.2,19.3-0.2c11.8-0.1,21.2-0.3,27.7-0.3c1.6,0,3.1,0,4.3-0.1
										c0.6,0,1.2,0,1.7,0c0.3,0,0.5,0,0.7,0c0.2,0.1,0.4,0.1,0.6,0.2c0.7,0.4,1,1.1,1,1.5C380.7,280.5,380.6,280.7,380.6,280.7z"
										/>
								</g>
							</g>
						</g>
					</g>
				</g>
			</g>
		</g>
		<g>
			<g>
				<g>
					<g>
						<g>
							<path class="st2" d="M336.5,305.5c0,1.7,1.4,3.2,3.2,3.2c1.7,0,3.2-1.4,3.2-3.2c0-1.7-1.4-3.2-3.2-3.2
								C337.9,302.3,336.5,303.7,336.5,305.5z"/>
						</g>
					</g>
				</g>
			</g>
		</g>
		<g>
			<g>
				<g>
					<g>
						<g>
							<g>
								<path class="st1" d="M380.5,281.1c0,0-0.1,0-0.3,0c-0.2,0-0.5,0-1,0c-0.9,0-2.1,0-3.7,0c-3.2,0-7.9,0-13.7,0.1
									c-11.6,0.1-27.5,0.2-45.2,0.3c-2.2,0-4.4,0-6.5,0.1c-0.5,0-1.1,0-1.6,0c-0.3,0-0.5,0-0.8,0c-0.3,0.1-0.5,0.2-0.8,0.3
									c-0.5,0.3-0.8,0.8-1,1.3c-0.1,0.5-0.2,1-0.3,1.5c-0.8,4.1-1.6,8-2.3,11.8c-1.5,7.5-2.8,14.3-3.9,19.9
									c-1.1,5.7-2,10.3-2.6,13.4c-0.3,1.6-0.5,2.8-0.7,3.7c-0.1,0.4-0.1,0.7-0.2,1c0,0.2-0.1,0.3-0.1,0.3s0-0.1,0.1-0.3
									c0-0.2,0.1-0.5,0.2-0.9c0.2-0.8,0.4-2.1,0.8-3.6c0.6-3.2,1.6-7.8,2.7-13.4c1.1-5.7,2.5-12.4,4-19.9
									c0.7-3.7,1.5-7.7,2.4-11.8c0.1-0.5,0.2-1,0.3-1.5c0.1-0.5,0.4-0.9,0.9-1.2c0.2-0.1,0.4-0.2,0.7-0.3c0.2-0.1,0.5,0,0.8,0
									c0.5,0,1.1,0,1.6,0c2.1,0,4.3,0,6.5-0.1c17.6-0.2,33.6-0.3,45.2-0.4c5.8-0.1,10.5-0.1,13.7-0.2c1.6,0,2.9,0,3.7-0.1
									c0.4,0,0.7,0,1,0C380.4,281.1,380.5,281.1,380.5,281.1z"/>
							</g>
						</g>
					</g>
				</g>
			</g>
		</g>
	</g>
</g>
<g>
	<g>
		<g>
			<g>
				<g>
					<g>
						<g>
							<g>
								<path class="st1" d="M225,137.5c2.7,1.6,6.5,0.8,8.3-1.7c1.8-2.5,1.5-6.4-0.8-8.5c2.6-1,4.3-3.7,4.2-6.5
									c-0.1-2.7-2.2-5.3-4.8-6c1-2.5,0.6-5.5-1-7.7c-1.6-2.2-4.5-3.4-7.1-3.1c-1.7-3.6-6-5.6-9.9-4.7c-2.2-1.5-5.4-1.4-7.5,0.2
									c-2.1,1.7-2.9,4.7-2,7.2"/>
							</g>
						</g>
					</g>
					<g>
						<g>
							<g>
								<g>
									<g>
										<g>
											<path class="st4" d="M225.5,138.6c4.7-13.2-1.5-27.8-14.3-33.5l-1.3-0.6c-14-5.4-26.4,3.5-31.4,17.7l-21.8,48.9l0,0
												l11.3,36.2l16.8-18l8.2-9.5c0,0,14.1,3.9,20.2-9.2C216.1,164.4,221.1,150.9,225.5,138.6z"/>
										</g>
									</g>
								</g>
							</g>
							<g>
								<g>
									<g>
										<g>
											<g>
												<g>
													<path class="st9" d="M193.1,179.9c0,0-8.6-3.3-14.9-12.8c0,0-1.4,10.9,12.3,15.6L193.1,179.9z"/>
												</g>
											</g>
										</g>
									</g>
								</g>
							</g>
							<g>
								<g>
									<g>
										<g>
											<g>
												<g>
													<g>
														<g>
															<g>
																<path class="st1" d="M216.7,149c-0.4,1-1.6,1.5-2.7,1.1c-1.1-0.4-1.6-1.6-1.2-2.6c0.4-1,1.6-1.5,2.7-1.1
																	C216.6,146.9,217.1,148,216.7,149z"/>
															</g>
														</g>
													</g>
												</g>
											</g>
										</g>
									</g>
								</g>
							</g>
							<g>
								<g>
									<g>
										<g>
											<g>
												<g>
													<g>
														<g>
															<g>
																<g>
																	<path class="st1" d="M219.8,143.8c-0.3,0.1-1.3-1.6-3.3-2.5c-2-0.9-4-0.6-4.1-0.9c-0.1-0.2,0.4-0.5,1.2-0.7
																		c0.8-0.2,2.1-0.1,3.4,0.4c1.3,0.6,2.1,1.5,2.5,2.3C219.9,143.2,220,143.7,219.8,143.8z"/>
																</g>
															</g>
														</g>
													</g>
												</g>
											</g>
										</g>
									</g>
								</g>
							</g>
							<g>
								<g>
									<g>
										<g>
											<g>
												<g>
													<g>
														<g>
															<g>
																<path class="st1" d="M198.1,141.1c-0.4,1-1.6,1.5-2.7,1.1c-1.1-0.4-1.6-1.6-1.2-2.6c0.4-1,1.6-1.5,2.7-1.1
																	C198,139,198.5,140.1,198.1,141.1z"/>
															</g>
														</g>
													</g>
												</g>
											</g>
										</g>
									</g>
								</g>
							</g>
							<g>
								<g>
									<g>
										<g>
											<g>
												<g>
													<g>
														<g>
															<g>
																<g>
																	<path class="st1" d="M199.8,135.2c-0.3,0.1-1.3-1.6-3.3-2.5c-2-0.9-4-0.6-4.1-0.9c-0.1-0.2,0.4-0.5,1.2-0.7
																		c0.8-0.2,2.1-0.1,3.4,0.4c1.3,0.6,2.1,1.5,2.5,2.3C199.9,134.6,199.9,135.2,199.8,135.2z"/>
																</g>
															</g>
														</g>
													</g>
												</g>
											</g>
										</g>
									</g>
								</g>
							</g>
							<g>
								<g>
									<g>
										<g>
											<g>
												<g>
													<g>
														<g>
															<g>
																<path class="st1" d="M200.3,153.5c0-0.1,1.4,0.2,3.5,0.9c0.5,0.2,1.1,0.3,1.3,0c0.3-0.3,0.3-1,0.3-1.7
																	c0.1-1.5,0.2-3,0.2-4.6c0.4-6.5,0.9-11.8,1.2-11.8c0.3,0,0.1,5.3-0.3,11.9c-0.1,1.6-0.2,3.1-0.3,4.6
																	c-0.1,0.7,0,1.5-0.6,2.1c-0.3,0.3-0.8,0.4-1.2,0.4c-0.4,0-0.7-0.2-0.9-0.3C201.6,154.2,200.3,153.6,200.3,153.5z"/>
															</g>
														</g>
													</g>
												</g>
											</g>
										</g>
									</g>
								</g>
							</g>
							<g>
								<g>
									<g>
										<g>
											<g>
												<path class="st1" d="M203.5,128.6c-0.5,0.4-2-0.9-4.1-2c-2.1-1.1-4.1-1.5-4-2.1c0-0.3,0.6-0.6,1.6-0.6
													c0.9-0.1,2.2,0.1,3.5,0.8c1.3,0.6,2.2,1.5,2.7,2.3C203.6,127.8,203.7,128.4,203.5,128.6z"/>
											</g>
										</g>
									</g>
								</g>
							</g>
							<g>
								<g>
									<g>
										<g>
											<g>
												<path class="st1" d="M223.3,136.8c-0.6,0.3-2.1-1-4.1-1.9c-2-1-3.8-1.4-4-2c-0.1-0.3,0.4-0.6,1.3-0.7
													c0.9-0.1,2.3,0.1,3.7,0.8c1.4,0.7,2.4,1.6,2.9,2.4C223.5,136,223.5,136.6,223.3,136.8z"/>
											</g>
										</g>
									</g>
								</g>
							</g>
							<g>
								<g>
									<g>
										<g>
											<path class="st4" d="M174.9,136c0.8-2.1-0.2-4.5-2.3-5.2c-2.6-0.9-5.9-0.7-8,4.4c-3.8,9.1,6.2,11,6.3,10.8
												C170.9,145.9,173.4,139.8,174.9,136z"/>
										</g>
									</g>
								</g>
							</g>
							<g>
								<g>
									<g>
										<g>
											<path class="st10" d="M170.3,141.8c0,0-0.2,0-0.5,0.1c-0.3,0-0.8-0.1-1.2-0.5c-0.8-0.8-1-2.6-0.4-4.3
												c0.3-0.8,0.8-1.6,1.4-2.1c0.6-0.6,1.2-0.8,1.7-0.7c0.5,0.1,0.8,0.5,0.8,0.8c0,0.3-0.1,0.5-0.1,0.5c0,0,0.3-0.1,0.3-0.5
												c0-0.2,0-0.5-0.1-0.7c-0.1-0.3-0.4-0.5-0.8-0.6c-0.7-0.2-1.6,0.1-2.2,0.7c-0.7,0.6-1.2,1.4-1.6,2.3
												c-0.7,1.9-0.5,4,0.7,4.9c0.6,0.4,1.2,0.5,1.6,0.4C170.2,142,170.3,141.8,170.3,141.8z"/>
										</g>
									</g>
								</g>
							</g>
						</g>
						<g>
							<path class="st1" d="M226.5,116.6c0-0.3,0-0.5,0-0.8c-0.3-1.9-1.6-3.6-3.3-4.6c-0.8-1-1.7-2-2.6-2.7
								c-0.3-2.7-1.9-5.3-4.2-6.6c-2.7-1.6-6.2-1.5-8.8,0.1c-0.4-0.1-0.8-0.2-1.2-0.3c-1.2-2.2-3.4-3.8-5.9-4.3
								c-2.8-0.6-5.8,0.3-7.8,2.3c-1.9-1.6-4.8-1.8-7-0.7c-2.2,1.2-3.6,3.7-3.4,6.2c-2,0.2-4.1,1.2-5,3c-0.8,1.7,0,4.2,1.8,4.7
								c-2.3,4.2-4.1,9.4-5.9,14c-1.3,3.2,1.9,6.9,1.2,9.2c-3.5,11.5,2.8,7.1,14.3-14.8c0.3-0.1,0.6-0.2,0.9-0.3
								c0.7-0.2,1-0.7,1.6-1c0.8-0.4,1.6,0.2,2.3,0.7c2.5,1.5,6,0.8,7.8-1.4c0.2,1.3,1.8,2,3.1,1.8c1.3-0.2,2.4-1,3.6-1.5
								s2.7-0.9,3.8-0.2c0.6,0.4,1.1,1.1,1.8,1.3c1.2,0.4,2.4-0.7,3.1-1.8c0.6-0.9,1.2-2,2.2-2.4c0.9,0,1.7,0.1,2.6,0.4
								c0.4,0.3,0.8,0.5,1.2,0.8c0.2,0.1,0.4,0.2,0.6,0.3c0.2,0.2,0.4,0.4,0.7,0.7c3.1,3.7,2.9,13.5,2.9,13.5
								C229.6,127,228.7,121.3,226.5,116.6z"/>
						</g>
					</g>
				</g>
			</g>
		</g>
		<g>
			<g>
				<path class="st2" d="M200.7,102.2c0,0,0.1-0.1,0.2-0.2c0.1-0.1,0.4-0.3,0.7-0.5c0.6-0.4,1.6-0.8,2.9-0.9c1.3-0.1,2.9,0.1,4.5,1
					c1.5,0.9,2.9,2.5,3.4,4.6l-0.3-0.1c0.9-0.3,1.8-0.6,2.9-0.6c2.4-0.2,4.8,0.5,6.4,1.9c1.6,1.4,2.4,3.3,2.4,4.9
					c0,1.6-0.6,2.8-1.1,3.5c-0.3,0.4-0.5,0.6-0.7,0.7c-0.2,0.1-0.3,0.2-0.3,0.2c0,0,0.4-0.3,0.8-1c0.5-0.7,1-1.9,1-3.4
					c0-1.5-0.8-3.3-2.3-4.6c-1.5-1.3-3.8-2-6.1-1.8c-1,0.1-1.9,0.3-2.7,0.6l-0.2,0.1l-0.1-0.2c-0.5-1.9-1.8-3.5-3.2-4.4
					c-1.4-0.9-3-1.1-4.3-1c-1.3,0.1-2.2,0.5-2.9,0.8C201,101.9,200.7,102.2,200.7,102.2z"/>
			</g>
		</g>
		<g>
			<g>
				<path class="st2" d="M180.9,105c0,0,0,0,0.1-0.1c0.1-0.1,0.2-0.1,0.4-0.2c0.4-0.2,1-0.4,1.9-0.4c0.8,0,1.9,0.1,2.9,0.6
					c1.1,0.5,2.1,1.4,2.8,2.8l-0.3,0c1.2-1.6,3.3-2.7,5.7-2.8c1.2-0.1,2.5,0.1,3.7,0.5c1.2,0.4,2.4,1,3.4,1.9
					c2.1,1.6,3.6,3.6,4.7,5.5l-0.3,0c1.7-1.7,4-2.4,6-2.4c2,0,3.7,0.7,4.9,1.5c1.2,0.8,1.9,1.8,2.3,2.4c0.2,0.3,0.3,0.6,0.4,0.8
					c0.1,0.2,0.1,0.3,0.1,0.3c0,0-0.2-0.4-0.6-1c-0.4-0.6-1.2-1.5-2.3-2.3c-1.2-0.8-2.8-1.4-4.7-1.4c-1.9,0-4.1,0.8-5.7,2.4
					l-0.2,0.2l-0.1-0.2c-1.2-1.9-2.7-3.9-4.7-5.4c-1-0.8-2.2-1.4-3.3-1.8c-1.2-0.4-2.4-0.5-3.5-0.5c-2.3,0.1-4.4,1.2-5.5,2.6
					l-0.2,0.2l-0.1-0.2c-0.6-1.3-1.6-2.2-2.6-2.6c-1-0.5-2-0.7-2.8-0.7C181.8,104.5,180.9,105.1,180.9,105z"/>
			</g>
		</g>
		<g>
			<g>
				<path class="st0" d="M219.4,115.8c0,0-0.1,0.1-0.3,0.3c-0.2,0.2-0.5,0.5-0.8,0.9c-0.3,0.4-0.7,0.9-1.2,1.5
					c-0.5,0.6-1,1.3-1.9,1.8c-0.5,0.2-1,0.3-1.6,0.1c-0.5-0.2-1-0.5-1.5-0.8c-0.5-0.3-1-0.6-1.6-0.6c-0.6,0-1.2,0.2-1.8,0.4
					c-0.6,0.2-1.2,0.6-1.8,0.9c-0.6,0.3-1.2,0.7-2,0.8c-0.7,0.1-1.5,0-2.3-0.2c-0.4-0.1-0.7-0.3-1.1-0.6c-0.3-0.2-0.6-0.6-0.7-1.1
					l0.4,0.1c-0.4,0.5-0.8,0.9-1.3,1.2c-0.5,0.3-1.1,0.6-1.7,0.8c-1.2,0.3-2.5,0.3-3.7-0.1c-0.5-0.1-1-0.4-1.5-0.6
					c-0.5-0.3-0.8-0.6-1.3-0.6c-0.5-0.1-0.9,0.1-1.3,0.3c-0.4,0.2-0.9,0.4-1.4,0.6c-1.9,0.7-3.9,0.8-5.6,0.1
					c-1.7-0.8-2.8-2.3-3.4-3.7c-0.6-1.5-0.7-3-0.4-4.3l0.1,0.2c-1.3-0.3-2.2-1.1-2.6-2c-0.5-0.9-0.4-1.8-0.3-2.5
					c0.2-0.7,0.4-1.1,0.7-1.4c0.1-0.1,0.2-0.2,0.3-0.3c0.1-0.1,0.1-0.1,0.1-0.1c0.1,0-0.6,0.5-0.9,1.8c-0.1,0.6-0.1,1.5,0.3,2.3
					c0.4,0.8,1.3,1.6,2.5,1.8l0.1,0l0,0.1c-0.3,1.2-0.1,2.7,0.5,4.1c0.6,1.4,1.7,2.8,3.2,3.5c1.6,0.7,3.5,0.5,5.3-0.1
					c0.4-0.2,0.9-0.4,1.3-0.6c0.4-0.3,1-0.5,1.5-0.4c0.3,0,0.5,0.1,0.8,0.2l0.7,0.4c0.4,0.2,0.9,0.4,1.4,0.6
					c1.2,0.4,2.4,0.4,3.5,0.1c0.6-0.2,1.1-0.4,1.5-0.7c0.5-0.3,0.9-0.7,1.2-1.2l0.3-0.4l0.1,0.5c0.1,0.7,0.8,1.1,1.5,1.3
					c0.7,0.2,1.4,0.3,2.1,0.2c0.7-0.1,1.3-0.5,1.9-0.8c0.6-0.3,1.2-0.6,1.8-0.9c0.6-0.2,1.2-0.5,1.9-0.4c0.7,0,1.2,0.3,1.7,0.6
					c0.5,0.3,0.9,0.6,1.4,0.8c0.5,0.2,1,0.1,1.4-0.1c0.8-0.4,1.4-1.1,1.8-1.7c0.5-0.6,0.9-1.1,1.2-1.5c0.3-0.4,0.7-0.7,0.9-0.9
					C219.2,115.9,219.4,115.8,219.4,115.8z"/>
			</g>
		</g>
	</g>
	<g>
		<path class="st1" d="M28.8,287.5c0,0-4,10.7-5.4,13.6c-1.4,2.9,0,33.9,0,33.9h91.8l1.3-27.3l-44.2-26.7L28.8,287.5z"/>
	</g>
	<g>
		<g>
			<path class="st4" d="M223.9,244l36.1,6.8c0,0-0.7,15.6-0.2,15.2c0.5-0.4-50.7-0.5-50.7-0.5L223.9,244z"/>
		</g>
		<g>
			<g>
				<path class="st4" d="M259.4,250.8l25.1,7.7l11,7.7l9.8,10.6c0,0-0.1,2.9-3.8,1.1c-3.7-1.9-7.3-5.3-7.3-5.3l7.3,13.4
					c0,0-2.9,2.9-5.3-1.3c-2.4-4.2-6-9.7-6-9.7l-2.2-1.6c0,0,2.3,4,2.3,5.1c0,1.1-2.3,7.2-2.3,7.2l-3.6,4.9c0,0-2.2-0.2-2-2.5
					c0.2-2.3,1.5-3.9,1.5-3.9l-4.4,3.8c0,0-1.5-0.9-0.2-3.7l1.6-1.7l0.5-2.7l-1.3-2.1c0,0-3.4,0.2-6-3.7c-2.6-3.9-6.6-3.2-12.3-6.5
					c-5.7-3.4-5.1-7.1-5.1-7.1L259.4,250.8z"/>
			</g>
			<g>
				<g>
					<path class="st10" d="M272.9,260.3c0.1,0,0.1,1.3,0.9,3c0.4,0.9,1.1,1.9,2,2.8c0.9,1,1.9,1.9,3.1,2.9c1.2,1,2.4,1.8,3.2,2.9
						c0.8,1.1,1.1,2.4,0.8,3.4c-0.3,1-1.1,1.5-1.6,1.7c-0.3,0.1-0.5,0.1-0.7,0.1c-0.1,0-0.2,0-0.2-0.1c0,0,0.3,0,0.8-0.2
						c0.5-0.2,1.2-0.7,1.4-1.6c0.2-0.9,0-2.1-0.8-3.1c-0.8-1-1.9-1.9-3.1-2.8c-1.2-1-2.3-1.9-3.1-2.9c-0.9-1-1.5-2-1.9-2.9
						c-0.4-0.9-0.6-1.7-0.7-2.3C272.8,260.6,272.9,260.3,272.9,260.3z"/>
				</g>
			</g>
			<g>
				<g>
					<path class="st10" d="M293.9,272c0,0-0.3-0.1-0.7-0.3c-0.4-0.2-1-0.5-1.8-0.9c-1.5-0.8-3.5-2-5.7-3.4c-1.7-1.1-3.3-2.2-4.6-3
						l0.1,0c-1.1,0.3-2,0.6-2.7,0.8c-0.6,0.2-1,0.3-1,0.2c0,0,0.3-0.2,1-0.4c0.6-0.2,1.5-0.6,2.6-0.9l0.1,0l0.1,0
						c1.3,0.9,2.9,1.9,4.6,3c2.2,1.4,4.2,2.6,5.6,3.5C293.1,271.4,294,271.9,293.9,272z"/>
				</g>
			</g>
			<g>
				<g>
					<path class="st10" d="M287.8,272.4c0.1,0.1-0.7,0.9-2,1.3c-1.3,0.4-2.4,0-2.4-0.1c0-0.1,1.1,0,2.3-0.3
						C286.9,273,287.8,272.3,287.8,272.4z"/>
				</g>
			</g>
			<g>
				<g>
					<path class="st10" d="M283.7,275c0.1,0,0.8,2,1.6,4.6c0.2,0.7,0,1.4-0.2,2c-0.2,0.5-0.5,1-0.7,1.4c-0.4,0.8-0.3,1.3-0.4,1.3
						c0,0-0.2-0.6,0.1-1.4c0.2-0.4,0.4-0.9,0.6-1.4c0.2-0.5,0.4-1.1,0.2-1.7C284.1,277.1,283.5,275,283.7,275z"/>
				</g>
			</g>
		</g>
	</g>
	<g>
		<g>
			<g>
				<path class="st11" d="M26.3,282.1l32.2-34.8c0,0,42.4-72.8,50.8-79.5c21.1-16.8,45-8,45-8l8.5-3.2l14.4,36.5
					c0,0-5.3,7.8-5.9,9.4c-0.5,1.6-64.4,98.2-64.4,98.2l-22.8,32c0,0-35.4-6.6-50.5-26C26.7,297.8,26.3,282.1,26.3,282.1z"/>
			</g>
		</g>
		<g>
			<path class="st11" d="M180.8,192.3l4.7-4l0.1,12.3l8.2,11.5c0,0-23.9,28.8-28.8,33.6c-4.9,4.8-44.3,51.5-44.3,51.5
				s-2.1,22.2-4.7,28.4c-2.6,6.3-20.5,4.6-20.5,4.6l8.9-25.4l3.7-18.3l44.6-59.1l17.5-22.9L180.8,192.3z"/>
		</g>
		<g>
			<path class="st11" d="M168.8,231.8c0,0.7,24.3,24,24.3,24s1.8,4.4,3.8,5.1c2,0.7,12,5.4,12,5.4l15.7-22.5c0,0-7.9-7.3-10.2-8.6
				s-7.7-7.5-7.7-7.5l-18.2-21.8l-14,7.1L168.8,231.8z"/>
		</g>
		<g>
			<g>
				<path class="st1" d="M170.1,204.5c0,0,0-0.1,0.1-0.2c0.1-0.2,0.2-0.4,0.4-0.6c0.3-0.6,0.8-1.3,1.4-2.3c1.2-2,3-4.9,5.1-8.3
					l0.2,0.2c-3.8,1-8.3,2.2-13.2,3.5l-0.2,0.1l-0.1-0.2c-0.4-1.7-0.9-3.5-1.4-5.3c-2.3-8.7-4.3-16.5-5.8-22.3
					c-0.7-2.8-1.3-5.1-1.7-6.8c-0.2-0.8-0.3-1.4-0.4-1.8c-0.1-0.4-0.1-0.6-0.1-0.6c0,0,0.1,0.2,0.2,0.6c0.1,0.5,0.3,1.1,0.5,1.8
					c0.4,1.6,1.1,3.9,1.8,6.7c1.5,5.7,3.6,13.6,5.9,22.2c0.5,1.8,0.9,3.6,1.4,5.3l-0.2-0.1c4.9-1.3,9.4-2.5,13.2-3.5l0.4-0.1
					l-0.2,0.4c-2.2,3.4-4,6.2-5.2,8.2c-0.6,1-1.1,1.7-1.5,2.3c-0.2,0.2-0.3,0.4-0.4,0.6C170.2,204.4,170.2,204.5,170.1,204.5z"/>
			</g>
		</g>
		<g>
			<g>
				<path class="st1" d="M185.6,200.1c0,0-0.1,0.2-0.4,0.4c-0.3,0.3-0.8,0.6-1.3,1.1c-1.2,0.9-2.7,2.2-4.6,3.7l-0.3,0.3l0-0.4
					c0.2-2.3,0.5-5.1,0.9-8c0.1-0.9,0.2-1.7,0.3-2.5l0.3,0.2c-2.8,2.7-5.3,5-7.1,6.7c-0.9,0.8-1.6,1.4-2.1,1.9
					c-0.5,0.4-0.8,0.7-0.8,0.7c0,0,0.2-0.3,0.7-0.8c0.5-0.5,1.2-1.2,2-2c1.7-1.7,4.2-4.1,7-6.8l0.4-0.4l-0.1,0.5
					c-0.1,0.8-0.2,1.6-0.3,2.5c-0.3,2.9-0.6,5.7-0.9,8l-0.3-0.2c1.9-1.5,3.5-2.7,4.7-3.6c0.5-0.4,1-0.7,1.3-1
					C185.4,200.2,185.6,200.1,185.6,200.1z"/>
			</g>
		</g>
		<g>
			<g>
				<path class="st1" d="M188.6,217.4c0,0-0.1,0.1-0.2,0.3c-0.2,0.2-0.4,0.5-0.7,0.9c-0.6,0.8-1.5,1.9-2.6,3.3
					c-2.2,2.7-5.3,6.5-8.8,10.5c-3.5,4.1-6.7,7.7-9.1,10.2c-1.2,1.3-2.2,2.3-2.8,3c-0.3,0.3-0.6,0.6-0.8,0.8
					c-0.2,0.2-0.3,0.3-0.3,0.3c0,0,0.1-0.1,0.2-0.3c0.2-0.2,0.4-0.5,0.7-0.9c0.7-0.8,1.6-1.8,2.7-3.1c2.3-2.6,5.5-6.3,9-10.3
					c3.5-4.1,6.6-7.8,8.9-10.4c1.1-1.3,2-2.4,2.7-3.2c0.3-0.3,0.5-0.6,0.7-0.9C188.5,217.5,188.6,217.4,188.6,217.4z"/>
			</g>
		</g>
		<g>
			<g>
				<path class="st1" d="M213.3,235.3c0,0-0.2,0.3-0.6,0.9c-0.4,0.6-1,1.4-1.8,2.3c-1.5,2-3.7,4.6-6.3,7.4c-2.6,2.8-5.1,5.2-6.9,6.8
					c-0.9,0.8-1.7,1.5-2.2,1.9c-0.5,0.4-0.8,0.7-0.9,0.7c0,0,0.2-0.3,0.7-0.8c0.6-0.5,1.3-1.2,2.1-2c1.8-1.7,4.2-4.1,6.8-6.9
					c2.6-2.8,4.8-5.4,6.4-7.3c0.8-0.9,1.4-1.7,1.9-2.3C213,235.6,213.3,235.3,213.3,235.3z"/>
			</g>
		</g>
		<g>
			<g>
				<path class="st1" d="M91.8,322.8c0,0,0.1-0.1,0.2-0.3c0.1-0.2,0.3-0.5,0.6-0.9c0.5-0.8,1.3-2,2.3-3.5c2-3,4.9-7.3,8.5-12.6
					c7.2-10.7,17.2-25.4,28.1-41.7c10.9-16.3,20.7-31.2,27.2-42.3c3.3-5.5,6.3-9.8,8.4-12.7c1.1-1.4,2-2.5,2.6-3.3
					c0.3-0.3,0.5-0.6,0.7-0.8c0.2-0.2,0.2-0.3,0.2-0.3s-0.1,0.1-0.2,0.3c-0.2,0.2-0.4,0.5-0.7,0.8c-0.6,0.7-1.4,1.8-2.5,3.3
					c-2.1,2.9-5,7.2-8.3,12.8c-6.4,11.1-16.2,26-27.1,42.3c-10.9,16.3-20.9,31-28.2,41.6c-3.6,5.3-6.6,9.6-8.6,12.6
					c-1,1.5-1.8,2.6-2.4,3.4c-0.3,0.4-0.5,0.7-0.6,0.9C91.8,322.7,91.8,322.8,91.8,322.8z"/>
			</g>
		</g>
		<g>
			<g>
				<path class="st1" d="M93.6,284.1c0,0-0.1-0.1-0.3-0.2c-0.2-0.2-0.5-0.4-0.9-0.7c-0.8-0.6-1.9-1.6-3.2-2.8
					c-2.7-2.4-6.3-5.8-10.1-9.8c-3.8-4-7-7.8-9.3-10.7c-1.1-1.4-2-2.6-2.6-3.4c-0.3-0.4-0.5-0.7-0.7-0.9c-0.2-0.2-0.2-0.3-0.2-0.3
					c0,0,0.1,0.1,0.3,0.3c0.2,0.2,0.4,0.5,0.7,0.9c0.7,0.8,1.6,1.9,2.7,3.3c2.3,2.8,5.6,6.6,9.3,10.6c3.8,4,7.4,7.5,10,9.9
					c1.3,1.2,2.4,2.2,3.1,2.9c0.3,0.3,0.6,0.6,0.9,0.8C93.5,283.9,93.6,284,93.6,284.1z"/>
			</g>
		</g>
	</g>
	<g>
		<g>
			<g>
				<path class="st1" d="M143.3,171.4c0,0-0.3-0.5-1-1.4c-0.7-0.8-1.8-2-3.5-3c-1.7-1-3.9-1.9-6.4-2.5c-2.5-0.6-5.4-1.1-8.4-1
					c-3,0.1-5.8,0.9-8.1,2.1c-2.3,1.2-4,2.8-5.3,4.3c-1.3,1.5-2.1,2.9-2.6,3.8c-0.5,1-0.7,1.5-0.8,1.5c0,0,0-0.2,0.1-0.4
					c0.1-0.3,0.3-0.7,0.5-1.2c0.5-1,1.3-2.4,2.5-4c1.3-1.5,3-3.2,5.4-4.4c2.3-1.3,5.2-2.1,8.2-2.2c3-0.1,5.9,0.4,8.5,1
					c2.5,0.7,4.8,1.5,6.5,2.6c1.7,1.1,2.8,2.3,3.5,3.1c0.3,0.5,0.6,0.8,0.7,1.1C143.3,171.2,143.3,171.4,143.3,171.4z"/>
			</g>
		</g>
		<g>
			<g>
				<path class="st11" d="M104.3,181.7c0,0-1.4,48.2,0,71.1c0.4,7,3,11.6,3.5,11.7c1.4,0.4,29.7-2,29.7-2s0.2-8.7,2.4-11.9
					c2.1-3.2-3.3-1.9-3.3-1.9s11.7-59.5,10.2-70.4"/>
			</g>
			<g>
				<g>
					<path class="st1" d="M146.8,178.4c0,0,0.1,0.5,0.1,1.4c0,0.9,0.1,2.2,0,4c-0.2,3.5-0.7,8.5-1.5,14.7
						c-1.7,12.5-4.7,30.1-8.6,50.4l-0.2-0.2c0.7-0.2,1.4-0.3,2.2-0.3c0.4,0,0.8,0,1.1,0.2c0.2,0.1,0.4,0.2,0.5,0.4
						c0.1,0.2,0.2,0.4,0.2,0.6c0,0.4-0.2,0.8-0.4,1.1c-0.2,0.3-0.4,0.6-0.5,1c-0.3,0.7-0.5,1.4-0.7,2.1c-0.8,2.9-1,5.9-1.2,9l0,0.2
						l-0.2,0c-3.9,0.3-7.9,0.6-12.1,1c-3.5,0.3-6.9,0.5-10.3,0.7c-1.7,0.1-3.4,0.2-5.1,0.3c-0.4,0-0.8,0-1.3,0c-0.2,0-0.4,0-0.6,0
						l-0.3,0c-0.1,0-0.3-0.1-0.4-0.2c-0.6-0.7-0.9-1.5-1.3-2.2c-1.3-3.1-2-6.3-2.2-9.5c-0.1-1.6-0.2-3.2-0.2-4.7
						c-0.1-1.6-0.1-3.1-0.1-4.6c-0.3-12.1-0.2-23-0.1-32.2c0.1-9.2,0.3-16.6,0.4-21.7c0.1-2.6,0.1-4.5,0.2-5.9c0-0.7,0-1.2,0.1-1.5
						c0-0.3,0-0.5,0-0.5s0,0.2,0,0.5c0,0.4,0,0.9,0,1.5c0,1.4-0.1,3.3-0.1,5.9c-0.1,5.1-0.2,12.5-0.3,21.7
						c-0.1,9.2-0.1,20.1,0.2,32.2c0.1,1.5,0.1,3,0.2,4.6c0.1,1.5,0.2,3.1,0.2,4.7c0.2,3.1,0.8,6.3,2.1,9.3c0.3,0.7,0.7,1.5,1.2,2.1
						c0,0,0.1,0.1,0.1,0.1c0,0,0,0,0.1,0l0.3,0c0.2,0,0.4,0,0.6,0c0.4,0,0.8,0,1.2,0c1.7-0.1,3.4-0.2,5.1-0.3
						c3.4-0.2,6.8-0.5,10.3-0.7c4.1-0.3,8.2-0.7,12.1-1l-0.2,0.2c0.1-3.1,0.4-6.1,1.2-9.1c0.2-0.7,0.4-1.4,0.8-2.1
						c0.3-0.7,0.9-1.3,0.9-1.9c0-0.3-0.2-0.5-0.5-0.6c-0.3-0.1-0.7-0.1-1-0.1c-0.7,0-1.4,0.1-2.1,0.3l-0.3,0.1l0.1-0.3
						c3.9-20.3,7-37.8,8.7-50.3c0.9-6.3,1.4-11.3,1.7-14.7c0.1-1.7,0.1-3,0.1-3.9c0-0.4,0-0.8-0.1-1
						C146.8,178.5,146.8,178.4,146.8,178.4z"/>
				</g>
			</g>
		</g>
		<g>
			<g>
				<path class="st1" d="M137.5,249.1c0,0-0.4,0.1-1.2,0.2c-0.8,0.1-1.9,0.3-3.4,0.5c-2.9,0.4-6.8,0.7-11.2,0.9
					c-4.4,0.2-8.4,0.2-11.2,0.1c-1.4,0-2.6-0.1-3.4-0.2c-0.8-0.1-1.2-0.1-1.2-0.1c0,0,0.4,0,1.2,0c0.9,0,2,0,3.4,0.1
					c2.9,0,6.8,0,11.2-0.2c4.4-0.2,8.3-0.5,11.2-0.8c1.4-0.1,2.5-0.3,3.4-0.3C137,249.1,137.5,249.1,137.5,249.1z"/>
			</g>
		</g>
		<g>
			<g>
				<polygon class="st4" points="107.8,264.6 124.5,334.7 141.1,334.7 136.5,262.8 				"/>
			</g>
			<g>
				<path class="st4" d="M139.7,324.7l16.6,2.9l14.9,4.5c1.4,0.5,2.3,1.3,1.7,3l0,0l-48.4-0.5v-8.4L139.7,324.7z"/>
			</g>
			<g>
				<g>
					<path class="st10" d="M166.2,335.1c0,0,0.1-0.4,0-0.9c-0.1-0.6-0.6-1.4-1.6-1.8c-1-0.4-2.4-0.4-3.8-0.5
						c-1.5-0.1-3.1-0.3-4.8-0.5c-3.4-0.4-6.4-0.7-8.6-1c-1-0.1-1.9-0.2-2.6-0.3c-0.6-0.1-1-0.2-1-0.2c0,0,0.3,0,1,0
						c0.7,0.1,1.6,0.1,2.6,0.2c2.2,0.2,5.3,0.5,8.6,0.8c1.7,0.2,3.3,0.4,4.8,0.5c0.7,0.1,1.4,0.2,2.1,0.2c0.7,0.1,1.3,0.2,1.8,0.4
						c1.1,0.4,1.6,1.4,1.7,2c0,0.3,0,0.6,0,0.7C166.2,335,166.2,335.1,166.2,335.1z"/>
				</g>
			</g>
		</g>
		<g class="st8">
			<path d="M137.5,277.6l5.9-25.6v-8l-2.2-1.4l5.2-52.4l-9.7,58.6l1.2-0.1c1.3-0.1,3-0.4,2.7,0.9l-1.8,4l-2,10.6L137.5,277.6z"/>
		</g>
	</g>
	<g>
		<g>
			<path class="st9" d="M192.4,154.2c-1.8,1.9-2.4,4.7-0.9,6.9c0.5,0.8,1.4,1.3,2.3,1.4c1.1,0.2,2.3,0.1,3.1-0.8
				c0.8-0.8,1.6-1.6,2-2.7C197.2,157.7,194.3,155.6,192.4,154.2z"/>
		</g>
		<g>
			<g>
				<path class="st1" d="M196.5,162.3c0,0-0.2,0.2-0.8,0.3c-0.5,0.1-1.3,0.1-2.3-0.2c-0.9-0.3-1.9-1.1-2.4-2.3
					c-0.6-1.2-0.7-2.7-0.1-4.1c0.3-0.7,0.7-1.3,1.1-1.9l0.1-0.1l0.1,0.1c1.9,1.4,3.5,2.6,4.7,3.5s1.9,1.5,1.8,1.5c0,0-0.8-0.4-2-1.3
					c-1.2-0.8-2.9-2-4.8-3.4l0.3,0c-0.4,0.5-0.8,1.1-1.1,1.8c-0.5,1.3-0.5,2.7,0.1,3.8c0.5,1.1,1.4,1.8,2.2,2.2
					c0.8,0.4,1.6,0.4,2.1,0.3C196.2,162.3,196.4,162.2,196.5,162.3z"/>
			</g>
		</g>
	</g>
</g>
</svg>
