<?xml version="1.0" encoding="utf-8"?>
<!-- Generator: Adobe Illustrator 24.0.0, SVG Export Plug-In . SVG Version: 6.00 Build 0)  -->
<svg version="1.1" id="Capa_1" xmlns="http://www.w3.org/2000/svg" xmlns:xlink="http://www.w3.org/1999/xlink" x="0px" y="0px"
	 viewBox="0 0 200 200" style="enable-background:new 0 0 200 200;" xml:space="preserve">
<style type="text/css">
	.st0{fill:#F48302;}
</style>
<g>
	<path class="st0" d="M8.8,150.7c0-1,0-1.9,0-2.9c0.9-1.8,2-3.4,4.2-3.8c1-0.2,2-0.1,3-0.1c2.8,0,5.7,0,8.6,0c0-0.9,0-1.6,0-2.2
		c0-11.4,0-22.8,0-34.2c0-4,2-6.1,6-6.2c0.4,0,0.8-0.1,1.2-0.2c0-0.8,0-1.5,0-2.2c0-16.3,0-32.7,0-49c0-2.4,0.7-4.3,2.5-6
		C44.9,33.3,55.5,22.6,66.1,12c1.2-1.1,2.6-2,3.9-3c29,0,58,0,86.9,0c3.1,1.5,4,3.9,4,7.2c-0.1,13.6,0,27.2,0,40.8
		c0,0.7,0,1.4,0,2.3c0.8,0,1.5,0,2.1,0c5.8,0,11.7,0,17.5,0c5.5,0,9.5,3.1,11.1,8.3c0.1,0.3,0.2,0.5,0.4,0.8c0,17.3,0,34.6,0,51.9
		c-0.1,0.1-0.2,0.3-0.3,0.4c-1.9,5.9-5.6,8.7-11.7,8.7c-4.2,0-8.3,0-12.5,0c-2.1,0-4.3,0-6.6,0c0,0.9,0,1.6,0,2.3
		c0,14.4,0,28.7,0,43.1c0,4.7-2,6.6-6.6,6.6c-30.5,0-60.9,0-91.4,0c-2.3,0-5-0.6-6.9,0.3c-1.9,0.9-2.9,3.3-4.4,5.1
		c-1.7,2-3,4.3-5.6,5.4c-1,0-1.9,0-2.9,0c-1.3-1.1-2.7-2.1-3.8-3.4c-6.2-7.5-12.3-15-18.4-22.6C16.9,161.1,12.9,155.9,8.8,150.7z
		 M150.1,129.4c-0.9,0-1.7,0-2.5,0c-20.6,0-41.3,0-61.9,0c-7.7,0-12.3-4.6-12.3-12.4c0-15.1,0-30.3,0-45.4c0-1.4,0.1-2.8,0.4-4.1
		c1.4-5.2,5.7-8.2,11.5-8.2c20.8,0,41.6,0,62.4,0c0.7,0,1.5,0,2.2,0c0-13.3,0-26.4,0-39.5c-24.5,0-48.8,0-73.3,0c0,0.8,0,1.5,0,2.2
		c0,8.5,0,16.9,0,25.4c0,4.4-2,6.4-6.3,6.4c-8.6,0-17.2,0-25.8,0c-0.7,0-1.4,0.1-2,0.1c0,15.9,0,31.5,0,47.3c5.2,0,10.4,0,15.5,0
		c4.8,0,6.7,1.9,6.7,6.7c0,11.2,0,22.4,0,33.6c0,0.7,0,1.4,0,2.2c3.4,0,6.6,0,9.9,0c2.4,0,4.3,0.9,5.4,3.1c1,2.2,0.6,4.2-0.9,6
		c-2.1,2.5-4.1,5-6.1,7.5c-2.7,3.3-5.4,6.6-8.2,10.1c28.6,0,56.9,0,85.3,0C150.1,156.9,150.1,143.3,150.1,129.4z M181.1,118.6
		c0.1-0.5,0.1-0.8,0.1-1.2c0-15.3,0-30.5,0-45.8c0-1.7-0.9-1.6-2-1.6c-31.1,0-62.1,0-93.2,0c-1.7,0-2.1,0.5-2.1,2.1
		c0.1,14.8,0.1,29.6,0,44.3c0,1.9,0.6,2.2,2.3,2.2c30.9,0,61.8,0,92.6,0C179.7,118.7,180.4,118.6,181.1,118.6z M44.7,178.3
		c6.4-7.9,12.7-15.6,19.2-23.7c-1.3,0-2.2,0-3,0c-4.9,0-6.8-1.9-6.8-6.8c0-11.1,0-22.3,0-33.4c0-0.7,0-1.4,0-2.2
		c-6.3,0-12.5,0-18.8,0c0,0.8,0,1.4,0,2.1c0,11.4,0,22.8,0,34.2c0,4.1-2.1,6.2-6.3,6.2c-1,0-2.1,0-3.5,0
		C32,162.7,38.3,170.4,44.7,178.3z M65.8,28.1C60.9,33,55.9,38,50.9,43c4.8,0,9.8,0,14.9,0C65.8,37.9,65.8,32.9,65.8,28.1z"/>
	<path class="st0" d="M121.7,94.2c0-4.5,0-8.9,0-13.4c0-3.2,1.3-4.4,4.5-4.4c2.3,0,4.7,0,7,0c7,0.2,12,3.8,14.2,10.5
		c1.9,5.8,1.8,11.7-1.1,17.2c-2.7,5.3-7.1,8-13.1,8.1c-2.3,0-4.7,0-7,0c-3.1,0-4.4-1.2-4.4-4.3C121.7,103.2,121.7,98.7,121.7,94.2z
		 M129,104.9c1.4,0,2.7,0,3.9,0c3.7,0.1,6.3-1.7,7.4-5.1c0.7-2.3,1.1-4.9,0.9-7.3c-0.6-7.9-5.1-9.9-12.2-8.8
		C129,90.7,129,97.7,129,104.9z"/>
	<path class="st0" d="M100.2,99.6c0,3.3,0.1,6.2,0,9.2c0,1.8-1.1,2.9-2.8,3.3c-1.6,0.3-3-0.2-3.8-1.7c-0.3-0.6-0.5-1.4-0.5-2
		c0-9.4,0-18.7,0-28.1c0-2.3,1.3-3.7,3.4-3.8c3.3-0.1,6.7-0.2,10,0.2c5.8,0.7,10.1,6,9.9,11.7c-0.2,6-4.9,10.9-10.9,11.3
		C103.9,99.7,102.2,99.6,100.2,99.6z M100.4,83.4c0,3.1,0,6,0,9c1.7,0,3.3,0.1,4.9,0c2.2-0.2,3.9-2,4-4.1c0.2-2-1.3-4.1-3.5-4.5
		C104,83.4,102.3,83.5,100.4,83.4z"/>
	<path class="st0" d="M160.9,83.8c0,2.1,0,4.2,0,6.7c2.5,0,4.9-0.1,7.3,0c1.8,0.1,3.1,1.5,3.2,3.3c0.1,1.7-0.9,3.2-2.6,3.6
		c-0.7,0.2-1.5,0.2-2.3,0.2c-1.8,0-3.7,0-5.7,0c0,3.3,0,6.3,0,9.4c0,0.8,0,1.7-0.2,2.5c-0.4,1.7-1.9,2.8-3.7,2.6
		c-1.7-0.1-3-1.4-3.2-3.1c-0.1-0.5-0.1-1-0.1-1.4c0-8.9,0-17.7,0-26.6c0-3.4,1.2-4.6,4.6-4.6c3.4,0,6.8-0.1,10.2,0
		c3.1,0.1,4.8,2.8,3.5,5.3c-0.7,1.3-1.9,1.9-3.4,1.9c-2.4,0-4.9,0-7.3,0.1C161.1,83.6,161.1,83.6,160.9,83.8z"/>
</g>
</svg>
