<?xml version="1.0" encoding="utf-8"?>
<!-- Generator: Adobe Illustrator 24.0.0, SVG Export Plug-In . SVG Version: 6.00 Build 0)  -->
<svg version="1.1" id="Capa_1" xmlns="http://www.w3.org/2000/svg" xmlns:xlink="http://www.w3.org/1999/xlink" x="0px" y="0px"
	 viewBox="0 0 200 200" style="enable-background:new 0 0 200 200;" xml:space="preserve">
<style type="text/css">
	.st0{fill:#ABADAE;}
	.st1{fill:#FD9800;}
</style>
<g>
	<path class="st0" d="M11.1,156.6c1.3-4.9,4.2-8.9,6.8-13.2c22.9-38,45.9-76,68.8-114c3.4-5.6,8.2-8.8,14.8-8.7
		c5.6,0.1,10.1,2.6,13.1,7.3c4.5,7.2,8.8,14.5,13.2,21.7c20.1,33.2,40.1,66.4,60.1,99.6c1.4,2.3,2.2,4.8,3.2,7.3c0,1.6,0,3.3,0,4.9
		c-0.4,1.3-0.8,2.7-1.3,3.9c-3.1,6.7-8.5,9.8-15.8,9.8c-48.6,0-97.2,0-145.8,0c-0.5,0-0.9,0-1.4,0c-4.8-0.2-9-1.9-11.9-5.8
		c-1.7-2.3-2.6-5.2-3.9-7.9C11.1,159.9,11.1,158.3,11.1,156.6z M100.9,163.6c24.2,0,48.3,0,72.5,0c0.8,0,1.7,0,2.4-0.2
		c2.8-0.6,4.3-3.4,3.2-6.1c-0.3-0.7-0.7-1.3-1.1-2c-12.6-20.9-25.3-41.9-37.9-62.8c-11.5-19-22.9-38-34.4-56.9
		c-0.7-1.1-1.6-2.2-2.7-2.8c-2.3-1.3-4.5-0.2-6.3,2.8c-23.7,39.3-47.4,78.5-71.1,117.8c-0.8,1.3-1.6,2.5-2.2,3.8
		c-1.3,2.8,0.2,5.7,3.3,6.3c0.7,0.1,1.5,0.1,2.3,0.1C52.9,163.6,76.9,163.6,100.9,163.6z"/>
	<path class="st1" d="M108.2,97.6c-0.2,7.2-0.5,14.5-0.7,21.7c-0.1,2.4-1.1,3.8-3.3,4.7c-2.1,0.9-4.2,0.8-6.4,0.1
		c-2-0.7-3.1-2.1-3.1-4.2c-0.5-14.6-1-29.1-1.5-43.7c-0.1-3.7,1.5-6,4.8-7c3.9-1.2,8.3,0,9.9,2.9c0.7,1.2,0.9,2.8,0.9,4.2
		c-0.1,7.1-0.4,14.1-0.6,21.2C108.3,97.6,108.2,97.6,108.2,97.6z"/>
	<path class="st1" d="M93,140.4c0-4.6,3.8-8.4,8.4-8.3c4.5,0.1,8.2,3.9,8.2,8.4c0,4.4-3.9,8.3-8.3,8.3
		C96.7,148.9,92.9,145.1,93,140.4z"/>
</g>
</svg>
